<?xml version="1.0" encoding="utf-8"?>
<!-- Generator: Adobe Illustrator 24.3.0, SVG Export Plug-In . SVG Version: 6.00 Build 0)  -->
<svg version="1.1" id="Layer_1" xmlns="http://www.w3.org/2000/svg" xmlns:xlink="http://www.w3.org/1999/xlink" x="0px" y="0px"
	 viewBox="0 0 251.8 143.6" style="enable-background:new 0 0 251.8 143.6;" xml:space="preserve">
<style type="text/css">
	.st0{opacity:0.5;}
	.st1{fill:#BFAAD2;}
	.st2{fill:#6753A3;}
	.st3{fill:#7060AA;}
	.st4{fill:#AF7CB6;}
	.st5{fill:#869ACE;}
	.st6{fill:#88658F;}
	.st7{fill:#74CBC8;}
	.st8{fill:#FFFFFF;stroke:#58595B;stroke-width:0.5;stroke-miterlimit:10;}
	.st9{fill:#FFFFFF;}
	.st10{fill:none;stroke:#6D6E71;stroke-miterlimit:10;}
</style>
<g class="st0">
	<path class="st1" d="M122.2,160.1c3.5,0.1,7-0.4,10.4-1.5c1.9-0.6,3.8-1.4,5.6-2.5c0.7-0.4,6.3-4.5,3.3-2.5
		c0.4-0.2,3.6-2.1,1.5-1.1c-2.1,1,1.2-0.2,1.8-0.3c-1.8,0.2,3.1,0.1,3.1,0.2c-1.5,0.9-10.5-9.3-8-3.8l-2.2-8.1v0.8l4.7-11.3
		l-0.8,0.7l7.1-4.1c0.8-0.2,3,0,1.1-0.1c-3.8-0.4,2.4,0.7,4.4,1.8l5.8,5.8l-0.3-0.5l-5.8,22l0.8-0.4l-8.1,2.2
		c0.7-0.1,1.5-0.1,2.3-0.1c1.3,0.2,1.3,0.1,0-0.2c1.9,0.6,2,0.5,0.4-0.3c1.6,0.8,3.2,1.5,4.9,2.1c1.8,0.5,3.6,1,5.5,1.2l3.1,0.4
		c0.7,0.2,1.5,0.3,2.2,0.4c4.9,0.8,9.5,0.7,14.4,0.7c4.2,0,8.4,0.3,12.6-0.7c15.8-3.9,14.7-26.5,0-31c-1.8-0.5-3.6-0.8-5.5-0.9
		c-1.5-0.1-1.5,0.1,0,0.2c-2-0.2-4.2-0.7-6.2-1c-4.1-0.9-8.1-2-12-3.4c-4.4-1.4-10.7-4.3-16.9-4.3c-4-0.1-7.9,1.1-11,3.5
		c-1.4,0.9-2.5,2.1-3.5,3.5c-1,1-1.7,2.2-2.1,3.5c-1.1,2.7-1.1,2.5,0.1-0.4c-4.4,7.2-1.8,18,5.8,22c7.7,4.3,17.4,1.7,22-5.8
		c0.9-1.7,1.7-3.5,2.4-5.3l-4.1,7.1l0.6-0.6l-11.4,4.7c0.2,0,2.6-0.1,1.2-0.2c2,0.6,2.5,0.7,1.5,0.3c-1-0.4-0.5-0.2,1.1,0.6
		c3.8,1.8,7.8,2.7,11.7,4.1c3,1,6.1,1.7,9.2,2.1c1.3,0.2,2.6,0.5,3.9,0.7c1.7,0.3,3.4,0.6,5,0.7c1.9,0.1,1.8,0.1-0.3-0.2v-31
		c4.8-1.2,0.9-0.5-0.6-0.5c-2.2,0-4.4,0-6.6,0c-0.6,0-6.9,0.1-3.4,0.3c-1-0.1-10.4-1.8-6.1-1c-0.9-0.2-1.8-0.3-2.7-0.5
		c1.9,0.8,2,0.9,0.5,0.2c-2.7-1.2-5.6-2.1-8.6-2.7c-6.4-1.1-12.1-1.1-18.1,2c-8.1,4.2-9.4,14.5-5.8,22c4.4,8.9,15.5,10,24.1,8.2
		c14.4-3,16.6-19.4,8.7-29.6c-6.9-8.9-19.2-8.8-29.2-6.7c-3.7,0.8-7.2,2.3-10.3,4.5c-1.3,0.9-6.8,4.2-3.3,2.5c1.9-0.8,2-0.8,0.2-0.2
		c2-0.2,2-0.3,0-0.3c-8.4-0.2-16.4,7.5-16.1,16.1C106.5,152.8,113.1,159.8,122.2,160.1L122.2,160.1z"/>
</g>
<g class="st0">
	<path class="st2" d="M15,0l0.4-0.7L5.8,6.7c1.7-0.6,1.2-0.6-1.5,0c6.2-0.6,5.7-0.8-1.6-0.6l-7.1-4.1l0.5,0.6L-8.8-8.9
		c0.5-2.2,0.5-2.3,0-0.3l-0.4,1.4c-0.4,1.5-0.9,2.9-1.3,4.4c-1,3.9-1.6,7.9-1.8,11.9C-12.4,21.8,2.7,30.2,14,23.3
		c5.5-3.4,9-9.2,12.6-14.4c1.8-2.7,3.6-5.3,5.4-8c0.5-0.7,1-1.4,1.4-2.1c-0.6,0.8-0.6,0.8,0.1,0c0.4-0.4,0.8-0.9,1.2-1.3
		c1.3-1.3,1.1-1.1-0.6,0.5L26,0.1h0.9L15.6-4.5l-3.4-8.2l2.2-8.1c2.4-4.2-1.3,0.3,1.1-1.6l-6,4.7c-2.3,1.8-4.5,3.5-6.7,5.4
		C-2.5-7.9-7.1-2.8-11,2.8c-3.7,5.6-6.3,11.9-7.5,18.5c-1.1,5.7-1.6,11.3,1.2,16.7c3.2,5.9,9.7,9.2,16.2,9.2
		c9.5,0,17.1-6.5,23.6-12.6c5.2-5,10-10.3,14.6-15.9c4.6-5.5,9-11.2,13.7-16.6c2.1-2.5,4.2-5,6.4-7.4C57.9-6,61-9,60.3-8.4
		c-0.7,0.5-0.5,0.4,0.3-0.2c2.4-1.5,0.9-1.3-4.6,0.8l-11.3-4.7l0.6,0.6L41.2-19c1.7-7.2,1.7-9.2,0.1-6c1-1.1,0.9-0.9-0.5,0.6
		c-1.3,1.4-2.6,2.8-4,4.1c-3.1,3.2-6.3,6.3-9.5,9.3C20.8-4.9,14.2,1,7.6,6.9c-11.9,10.5-42,29.9-27.8,48.2c7.7,10,22.1,7.7,31.6,1.7
		c7.5-4.7,13.7-11.1,19.3-17.9c5.3-6.4,10.3-13,16.1-19.1c2.9-3.1,6-6,9.2-8.7c-1.2,0.8-1,0.7,0.6-0.4c0.9-0.6,1.8-1.1,2.8-1.5
		c-1.3,0.6-1,0.6,0.8,0c-1.3,0.2-2.6,0.1-3.8-0.3l-9.6-7.4l0.4,0.6l-1.6-12.4l-0.2,0.8l4.1-7.1c-2.1,2.6,2.4-1.5,0.4,0.1
		c-1.1,0.8-2.2,1.7-3.4,2.4c-0.3,0.2-3.3,1.9-1.6,1.1c-1.6,0.6-3.2,1-4.9,1.2L59.7-0.6l-0.4-1.5l-1.6,12.4C58.5,8.5,58.2,8,60.3,6
		c0.8-0.8,1.7-1.5,2.6-2.1l1.3-1c-0.7,0.8-0.6,0.9,0.3,0.3c0.7-0.3,1.4-0.7,2-1.1c-1,0.4,2.6-1.4,1-0.5c-0.8-0.1-0.8-0.1,0.1-0.1
		c0.9,0,0.9,0-0.1-0.1c-0.2-0.2-6-3.4-3.8-1.6l-4.1-7.1l0.2,0.7V-15c-0.8,2.4-0.1,1.4,2.2-2.9c-0.7,0.9-1.4,1.8-2.2,2.7
		c-0.8,0.9-3.2,3.2-3.6,3.5C54.3-10,50.1-7.9,47-6.4h16.2l-0.8-0.4l5.8,22c-1.7,2.3,1-0.8,1.5-1.3c-2.2,1.8,1.9-0.9,2.5-1.2
		c1.4-0.7-1.6,0.4,1.1-0.4c0.6-0.2,1.2-0.4,1.7-0.6c2.9-0.7,1.6-0.8-3.9-0.3L64,7.2l-1.2-1.7l-2.2-8.1c-0.1-0.9,2.2-5.3,0.5-2.8
		c1.4-2,4-3.4,0.6-1.3c-0.7,0.4-1.3,0.8-2,1.1C60.9-6,61-6,59.9-5.6c-6.7,3.2-4.7,0.3-0.1,1.2L71,6.7l-0.8-2.5v8.5
		c-1,2.4-5.2,5.3,0.9,0.5c2.5-2-1.2,0.4,1.8-1.3l4.2-2.4c1.8-0.8,1.9-0.9,0.6-0.4c0.7-0.3,1.5-0.6,2.2-0.8c1.8-0.7,3.7-1.3,5.5-1.8
		c1.6-0.5,5.6-0.4,1-0.7c3.6,0.3,9.4-1.1,12.3-3.3c5.3-4,8.6-9,7.7-16c-0.8-5.7-5.3-12.4-11.5-13.3c-11.8-1.8-23.4,0.7-34.4,5.2
		c-9.7,3.9-19.5,7.9-27.9,14.3c-5,3.8-10,8.6-11.8,14.9C18.1,17.3,24.5,26.8,34,29c5.7,1.3,11.7,0.8,17.5,1c5.5,0.1,11.1,0,16.6,0.3
		L60.1,0.4l-1,0.6l8.1-2.2c-1.8,0.2-4.1,0-5.7,0.5c-1.3-0.1-1.2,0,0.1,0.3c-0.9-0.2-1.7-0.5-2.6-0.7l7.1,4.1l1.3,1.7l-2.6,19.4
		c-1.6,1.6,1.4-1,1.9-1.3c7.2-4.4,10.5-14.6,5.8-22C67.9-6.4,58.2-9.6,50.5-4.9c-3,1.8-5.8,3.9-8.4,6.3c-5.4,5.3-5.7,13-2.5,19.5
		c5.9,12,26.1,13.2,36.6,7.2c14.4-8,7.3-29.3-8.1-29.9C63.2-2,58.3-1.9,53.3-2c-2.3-0.1-4.7-0.2-7-0.2c-1.2,0-2.4,0-3.5,0
		c-3-0.3-2.4,0.1,1.7,1.1l7.9,13.9v-1l-2.2,8.1c0.8-1.5,0.7-1.4-0.4,0.1c1.4-1.3,1.5-1.5,0.3-0.6c1.8-1.4,3.6-2.6,5.6-3.6
		c3.7-2.1,7.6-4,11.5-5.6c3.3-1.5,6.7-2.8,10.2-3.9c2.3-0.7,4.6-1.2,6.9-1.6c2-0.3,2.3-0.4,1-0.2c2,0.1,2.3,0,1-0.3l-3.8-29.3
		c0.8-0.6,5-1.3,4.3-1.2c-0.9,0.2-2.1,0.3-3,0.4c-2.9,0.4-5.8,1.1-8.6,2c-5.7,1.7-11.2,4-16.4,6.9c-2.8,1.6-5.5,3.5-8,5.6
		c-0.8,0.7-1.7,1.5-0.4,0.4c-1.7,1.2-3.2,2.6-4.7,4C40-0.7,37.3,6.9,40,15.3c1.7,5,5.7,10.1,11.2,11.2c6.3,1.3,12.9,0.7,18.7-1.9
		c-1.3,0.6-1.1,0.6,0.6-0.2c1.8-0.7,3.5-1.5,5.2-2.3c1.4-0.7,2.7-1.5,4-2.4c9-6.1,16.1-17.5,11.4-28.5c-4.8-11.5-17.1-13.6-27.7-9.6
		C53.9-14.6,46.5-9.6,40.4-1c-4.8,6.8-1.4,18.2,5.8,22s13.6,2.4,20.4-1.2c5.2-2.8,10-6.3,14.2-10.4c4.1-4,8.1-8.7,9.7-14.3
		c2-7.2,0.2-14.6-5.7-19.4c-11-8.7-23.8-7-35.6-0.7C37.7-18.9,24.7-6.2,28.7,7.9c2.6,9,11,12.5,19.8,11.2
		c12.3-1.8,32.9-14.5,28-29.4c-6.2-19.1-28.6-12.6-40.4-3.6c-9.6,7.4-17.3,16.6-24.8,26c-3.6,4.6-7.4,9-11.5,13
		c-0.8,0.8-1.7,1.5-2.5,2.3c-3.7,3.3,1-0.5-1.4,1.1c-0.7,0.5-1.4,0.9-2.1,1.3l0.9-0.2l-1.3,0.4c2.5-0.5,5.1,0,7.2,1.4l5.8,5.8
		l-0.4-0.7l1.6,12.4c-2.6,4.2-3,5.1-1,2.6c0.7-0.8,1.5-1.7,2.3-2.5c1.2-1.2,2.4-2.4,3.6-3.6c3-2.8,6.1-5.5,9.2-8.2
		c6.8-5.9,13.7-11.9,20.4-18.1c6.3-5.6,12.4-11.4,18.3-17.5C67.6-5.9,75.4-15.5,72.3-27c-3.7-13.7-18.8-15.9-29.1-8.5
		c-7,5.1-12.3,11.6-17.8,18.2C20-10.8,14.8-4.2,9.3,2.1c-2.9,3.1-5.7,6.2-8.7,9.1c-1.4,1.4-2.8,2.8-4.3,4c1.1-0.8,0.8-0.6-0.8,0.5
		c2-0.5,4.1-0.6,6.1-0.4l9.6,7.4l-0.7-1l2.1,8.1c0-2.8-0.4,1.2,0-0.8c0.3-1.2,0.5-2.5,0.9-3.7c0.3-0.9,0.6-1.8,0.9-2.7
		c-1.1,2.9,0.2,0,0.5-0.6c0.6-1,1.2-2,1.8-3c1.5-2.5-0.7,0.7,0.5-0.6c1.4-1.6,2.8-3.1,4.4-4.6c1.7-1.6,3.5-3.2,5.4-4.7
		c0.9-0.8,1.9-1.5,2.8-2.2c0.5-0.4,3.1-2.4,0.7-0.6c6-4.7,12.3-8.6,13.4-16.8c1.1-8.5-3.8-18.7-12.8-20.8c-8-1.8-15,1.5-20.4,7.4
		c-4.1,4.7-7.5,10-11,15.1c-1.4,2.1-3,4.2-4.4,6.3c-1,1.5,0.9-1.2,1.1-1.3C-4.9-2.1-6-2.5-2.9-4.1l8.1-2.2l-0.6,0L12.7-4l-0.5-0.3
		l7.4,9.6c-0.1,5.4,0,6.5,0.4,3.1c0.2-1.1,0.4-2.1,0.7-3.2c0.5-1.9,1.1-3.8,1.6-5.8c1.7-7,1.8-14-3.6-19.6
		C13.5-25.5,7.7-25.9,0.9-25c6.6-0.8-1.8,0.2-3.7,0.7c-4.3,1.2-7.9,4.1-10,8c-4,7.4-2,17.8,5.8,22C0.6,9.7,10.6,7.8,15,0z"/>
</g>
<g class="st0">
	<path class="st3" d="M85.4,47.5c8.3-8.2,15.9-17.2,22.4-26.8c3.2-4.7,6.3-9.5,9.3-14.3c1.5-2.5,3.1-4.9,4.7-7.4c0.7-1,1.3-2,2-3.1
		c1-1.5,3.7-4.2,0.4-1.2l-26.8-7.1C96.7-15.7,97-9.2,97-8.7c0.1,2.4,0.2,4.7,0.4,7.1S97.9,2.8,98,5c0.1,1,0.2,2.1,0.1,3.1
		c0.5-2.2,0.5-2.6,0-1.2l7.4-9.6l-0.6,0.4L129,11.7c0.2,1.6-3.1,5.4-3,5.4c-0.7,0.5-0.7,0.5,0,0c0.6-0.3,1.1-0.6,1.8-0.8l-8.1,2.2
		l1.2,0.1l-11.3-4.7l0.5,0.7l-4.1-15.6c0.9-3.4,2.8-5.7,5.6-6.9c0.8-0.4,0.9-0.4,0.1-0.1c-1.4,0.4-2.7,0.9-4,1.4
		c-2.9,0.9-6,1.6-9,2.3c-2.8,0.8-5.6,1.4-8.4,1.8c-2.9,0.1-5.7,0.4-8.6,0.8c-6.6,1.4-12,8.8-11.8,15.5c0.3,7.5,4.9,12.9,11.8,15.5
		c-1.3-0.7-1.2-0.6,0.5,0.3c-1.7-1.1-2.9-2.8-3.3-4.8v-8.5c5.8-5.8,7.1-7.8,3.9-6c1.3-0.5,1-0.4-0.8,0.3C80,11,78.2,11.6,76.2,12
		c-1.9,0.4-3.9,0.8-5.8,1c1.7-0.2,1.5-0.3-0.4,0s-3.9,0.5-5.8,0.8c-9.7,1.8-15.3,15.6-9.6,23.6c0.5,0.6,0.9,1.3,1.3,1.9l-2.1-8.1
		v1.1l2.2-8.1l-0.5,0.7l5.8-5.8c-2.1,1.4,1.2-0.4,1.2-0.4s-3.8,1-1.8,0.6c1.3-0.3-1.6,0.1-1.9,0.1c-1.4,0-2.7,0-4.1,0
		C36.6,18.9,32.5,46.9,50.3,51l1.2,0.3l-7.1-4.1l0.9,0.9l-4.7-11.3l0.1,0.6l4.7-11.3c3.7-4.6,12.5-3.9,6.4-3.7
		c-1.9,0.1-3.9,0.1-5.8,0.1c-1.3,0-2.6-0.1-3.9-0.2c-2.4-0.3-2.6-0.2-0.6,0.2c-3.7-0.2-5.9-1-9.7-0.1C18.2,25.6,12.8,44,22.8,54
		c6.9,6.8,18.9,6.4,28,6.6c4.5,0.1,9,0.2,13.5,0.3c1.7,0,3.5,0,5.2,0.1c1.1,0,2.2,0.1,3.3,0.2c-1.1,0-2.2-0.3-3.1-0.8l-5.8-5.8
		l0.5,0.7V39.1l-0.6,0.8l5.8-5.8c3.6-2.1-0.1-0.1-1.6,0.3c-0.8,0.2-1.7,0.3-2.5,0.5c1.4-0.2,1.2-0.2-0.8,0.1
		c-2.2,0.2-4.4,0.2-6.6,0.4c-2-0.1-2.1,0-0.5,0.2c5.4,5.5,7.2,6.9,5.6,4.1c-4.3-8.3-13.6-8.5-21.5-7.3c3.3-0.5-3.4,0.4-4.1,0.5
		c-2.9,0.3-5.8,0.7-8.6,1.3C17.7,37.1,14.3,46.1,9.2,55c-1.1,1.5-1.2,1.7-0.3,0.5c-0.7,0.8-1.4,1.6-2.2,2.3
		c-0.8,0.7-1.5,1.4-2.3,2.1C3,61.1,2.8,61.2,4,60.3c-0.9,0.6-1.8,1.1-2.8,1.6c1.4-0.5,1.2-0.5-0.6,0.2L-3,63.4
		c-2.5,0.7-2.4,0.8,0.2,0.3l13.9,24.1c-1.1,1-1.3,1-0.4,0.2c0.7-0.6,0.7-0.7,0.2-0.3c-1.1,1,2-1.3,2.3-1.5c2.5-1.6,5-3,7.6-4.4
		c4.6-2.5,10.6-5.1,14.6-6.9c10-4.3,22.8-8.2,33.3-13.4L49.3,36.4c-8,6.2-16.1,12.5-23.8,19.1c-7.5,6.3-13.8,12.6-21.3,17l24.2,13.9
		l0.1-0.7l-2.2,8.1c-3.4,5.3-5.1,4.5-1.9,2.9l3-1.5c3.2-1.7,6.4-3.2,9.6-4.7c6.6-3,13.2-5.8,19.7-9c13.9-6.7,26.2-14.6,36.7-26.2
		c4.9-5.4,7.4-6.7,13.9-11.2c6.5-4.3,12.6-9.1,18.2-14.5c4.9-4.7,9.4-9.7,13.6-15c2.5-3.2,4.4-6.9,5.4-10.8c0.3-1.6,0.5-3.2,0.7-4.8
		c0.2-1.4,0.2-1.4,0,0c-0.2,1.4-0.2,1.4,0.1,0.1c-2.7,6.3-7.1,9-13.1,8L124.9,3l0.7,0.8l-4.7-11.4v1.1l2.1-8.1c-1.7,4-3.5,8-5.3,12
		c-1,2.1-1.9,4.2-3.1,6.2c-0.6,1-1.2,2-1.8,3c-1.2,1.7-1.3,1.9-0.4,0.6c-0.6,0.7-1.3,1.4-2.1,2.1c1.4-1,1.3-0.9-0.3,0.1
		c-0.9,0.5-1.8,1-2.7,1.4c1.7-0.7,1.6-0.7-0.3-0.1c14.6,0.1,14,18.5,13.9,8.2c-0.1-2.1-0.2-4.2-0.5-6.2c-0.2-2-0.5-4-0.8-6
		c-0.3-2.2-0.4-2.4-0.1-0.6c-0.3-3-0.8-5.9-1.6-8.8c-2.3-7.1-7.9-12.7-15-15C95.8-20,88-18,82.9-12.6c-2,2.1-3.1,4.4-4.7,6.6
		c1.7-2.3-2.2,1.9-2.7,2.3c-3.7,3.4-5,3.9-10,8.1c-1.4,1.2-1.4,1.2,0,0c-0.8,0.5-1.7,1-2.5,1.6c-1.7,1.2-3.4,2.5-5.2,3.5
		c-4.4,2.5-5.1,2.2-10.3,4c-5,1.7-9.9,3.7-14.7,5.9c-4.5,1.9-8.5,4.8-11.6,8.5c-2,2.3-3.7,4.9-5.1,7.6c-0.8,1.8-1.5,3.6-2.3,5.5
		c-0.7,1.8-0.9,2.2-0.4,1c-2,4.8-4.2,9.2-5.1,14.3c-1.5,8,0.1,13.7,5.5,19.8c5.6,6.3,17.1,6.1,22.7,0c6.2-6.7,6-16,0-22.7l2.6,4.3
		v8.5c0.3-2,0.8-3.9,1.3-5.9c0.7-1.8,0.7-2,0.1-0.6c0.5-1,1-2,1.4-3.1c0.8-1.8,1.5-3.6,2.3-5.5c0.7-1.8,0.8-2.2,0.4-1
		c1-1.7,1.2-2,0.4-0.8c1.5-1.6,1.4-1.6-0.1-0.2c3.9-2.2,3.5-1.7,8-3.5c5-1.9,10.1-3.3,15-5.5c3.9-1.8,7.7-3.9,11.3-6.4
		c1.2-0.8,2.4-1.6,3.6-2.4c1.5-1.1,2.9-2.2,4.3-3.4c1.3-1.1,1.4-1.2,0.3-0.4c4.1-3,8.1-6.2,11.9-9.6c2.1-2,4-4.2,5.6-6.6
		c0.6-0.8,1.2-1.6,1.7-2.5c1.4-2.2,0.7-1.5-2.3,2.3l-8.1,2.1c-6.4,0-4.5-3.9-8.8-6.2c0.3,0.2,0.6,2.6,0.2,0.3
		c0.4,2.1,0.6,4.5,0.9,6.7c0.4,3-0.1-1.8,0.2,1.2c0.5,5.1,0,10,2,14.9c6.2,14.6,22.9,14.1,34.8,7.2c9.9-5.7,15.9-15.3,20.4-25.5
		c2.1-4.7,4.7-9.4,6.2-14.2c3-9.4-3.6-19.6-12.8-21.9c-7-1.7-14.4,0.3-19.7,5.2c-5.1,4.6-5.9,10.7-6.7,17l0.3-2.1
		c-0.3,1.2-0.4,1.4-0.1,0.4s1.8-2,0.4-1c-1.6,1.1-3,3.2-4.3,4.6c-3.5,3.9-7.2,7.7-11.2,11.2c-2.4,2.1-6.1,4.6-10,7.3
		c-5,3.2-9.6,6.7-14,10.6c-3.4,3.1-6.2,6.8-9.5,10c-3.7,3.5-6,5-11,8c-10,5.8-20.6,10.3-31.1,15c-4.8,2.2-9.6,4.5-14.3,7
		C0.7,72.7-2.7,78.2-3.8,86.3c-1.6,12.5,14.6,19.4,24.2,13.9c9.5-5.5,17.9-13.6,26.3-20.8c8.2-7,16.8-13.6,25.3-20.3
		c6.3-4.9,5.6-15.4,1.3-21.1c-5.1-6.6-13.5-7.7-20.7-4.1c-4.6,2.3,2.5-0.7-2.3,1c-1.4,0.5-2.8,1-4.2,1.5c-3.1,1.2-6.3,2.4-9.3,3.6
		c-6.6,2.7-13.2,5.4-19.8,8.3c-5.9,2.5-11.6,5.3-17.1,8.5c-6.1,3.6-13.5,8-16.4,14.8c-2.3,5.5-3.2,10.8,0,16.2c2.9,4.9,8.2,8,13.9,8
		c6.9,0.1,14.9-3.4,20.9-6.6C23.7,86.1,28.6,82,32.6,77c3.3-4,8-9.9,9.2-15.1c1.3-2,0.5-1.6-2.4,1.3c-3.7,2.2-4.1,2.8-1.3,1.9
		l1.7-0.3c-1,0.2-1,0.2,0.1,0c1.5-0.2,2.9-0.3,4.4-0.5l4.3-0.6c3-0.5,1.7-0.6-3.8-0.4l-9.6-7.4c5.9,10.6,17.4,12.1,28.4,11.2
		c10.7-0.9,22-2.1,28.4-11.8c2.9-4.5,3-11.7,0-16.2C84.9,28.6,73.6,29,62.2,28.8c-4.4-0.1-8.9-0.2-13.4-0.3
		c-2.5-0.1-4.9-0.2-7.4-0.4l-2.9-0.3c1.3,0,2.5,0.3,3.6,1l5.8,5.8l-0.6-0.9l2.2,8.1l-3.1,7.6l-7.1,4.1c-6.8-0.2-7.2,0-1.1,0.6
		c1.3,0.1,2.6,0.2,3.9,0.2c2.6,0.1,5.1,0.2,7.7,0.1c3.3-0.1,7,0,10.2-0.9C77,48.5,76.3,24,58.8,20l-4.2,31.5
		c7.1,0.2,15.2-0.3,21.6-3.9c9.5-5.4,12.7-17.3,6.2-26.4l-9.6,23.6c-3.2,0.6,2.2-0.3,2.5-0.3c1.5-0.2,3-0.4,4.5-0.6
		c2.5-0.4,5-0.9,7.5-1.5c5.9-1.5,12.9-3.8,17.3-8.3c6-6.1,7.9-15.7,3.2-23.2c-4.1-6.6-10.5-10-17.5-12.6v31c-4.6,0.9,2.8,0,3.6-0.1
		c2.6-0.4,5.2-0.7,7.8-1.3c3.7-0.8,7.3-1.6,10.9-2.5c8.4-2.2,18.1-5.1,22.6-13.3c3.7-6.7,2.5-14.4-2.4-20.2
		c-5.4-6.2-14.2-6.6-21.2-3.3c-8.4,3.9-15.8,13.3-14.7,23.1c0.7,5.8,2.6,10.7,8,13.9c4.7,2.8,11.5,3.1,16.2,0
		c8.6-5.7,9.6-14.2,8.7-23.6c-0.7-7.6-0.4-15.2-1.6-22.8c-2-12.8-18.7-14.3-26.8-7.1c-3.9,3.5-6.7,9.6-9.5,14
		c-3.2,5.2-6.4,10.4-9.8,15.4C76.5,10,70,17.9,62.7,24.8c-6,5.8-6.3,16.9,0,22.7C69.2,53.5,78.9,53.7,85.4,47.5z"/>
</g>
<g class="st0">
	<path class="st4" d="M91,52c6.7,0,13.7,0.6,20.1-1.6c6.7-2.2,12.7-6.3,17.1-11.9c3.7-4.8,6.5-10.2,9.8-15.2c0.8-1,1.5-2.1,2.1-3.2
		c1-2.2-0.6,1.9-1.2,1c0,0,2.8-1.5,3-1.6c3.8-2-0.5,0.3-1.7,0.2l-8.1-2.2l0.8,0.6c5.4,4.1,15,2.3,19.5-2.5s6.9-13.7,2.5-19.5
		c-3.6-4.8-6-9.2-11.8-11.7c-6.7-2.8-13.8-0.6-19.5,3.2c-7.8,5.2-13.7,13.1-18.3,21.1c-1.5,2.6-3.6,4.8-6.7,7.9
		c-0.4,0.4-2.3,1.5-0.5,0.5c0.6-0.3,1.6-0.2,0.1-0.1c-2.1,0.1-4.9,1.1-7,1.6c-9.9,2.5-17.3,10.8-22.4,19.3
		c-3.4,5.6-5.2,12.4-2.6,18.7c3.1,7.3,9.3,10.6,16.9,11.6c11.4,1.5,21.8-4.5,30.7-11c8-5.9,15.2-12.7,22.8-19.1
		c0.2-0.2,2.4-1.8,0.6-0.5c0.7-0.5,1.3-1,2-1.4c1.8-1.3,3.7-2.5,5.6-3.6c4.4-2.6,8.6-5.5,12.5-8.7c4.1-3.4,8.5-7.3,11-12
		c4.5-8.2,2.3-19.1-6.2-23.6c-11.1-6-32.7-1.7-34.8,12.8c-1.2,8.3,2.1,17.7,11.2,19.7c7.6,1.7,18.4-2.3,19.7-11.2l-3,4.8l-7.1,4.1
		c2.8-1.1-2.8,0,1.4-0.4c1.3-0.1,2.7-0.2,4-0.2l-8.1-2.2l0.9,0.5l-5.8-5.8l0.3,0.7V-4.7c-0.9,1.9-1.4,1.8,0.1,0.3
		c-1.3,1.2-2.5,2.5-3.8,3.7c-1.9,1.8-4.1,3.4-6.5,4.7c-6.4,3.9-12.5,8.2-18.3,13c-4.8,4-11.1,10-14.9,12.9c-2.7,2-5.5,3.8-8.4,5.4
		c-0.8,0.5-1.6,0.9-2.4,1.3c1.1-0.4,1.2-0.4,0.1,0c-1.1,0.4-1,0.3,0.1,0.2c0.9,0.3,1.7,0.6,2.5,1.1l5.8,5.7l-0.5-0.9l2.2,8.1
		c-0.8,7.8-1.6,5.5,0.5,2.3c2.4-3.8-1.5,1.3,1.5-2c0.9-1,1.9-2,2.9-2.9c0.2,0.3-7,2.8-0.6,1.4c7.8-1.5,15-5.2,20.7-10.6
		c5.5-5.2,9.2-11.3,13.4-17.6c0.8-1.2,1.7-2.4,2.6-3.6c-1.6,2.2,0.8-0.9,1.3-1.4c0.4-0.5,3.2-2.6,1.7-1.7c-1.3,0.8,2.7-1.3,3.1-1.5
		l-8.1,2.2l1.1-0.1l-8.1-2.2c-3-3.3-3.9-4.1-2.8-2.3c0.3,0.6,0.7,1.2,1.2,1.7l21.9-21.9c-7.5-5.7-17-2-24.3,1.8
		c-6.6,3.4-10.6,8.8-14.6,14.9c-1.7,2.6-3.5,5.2-5,8c-0.7,1.2-1.3,2.5-2.1,3.7c-0.6,0.9-0.6,0.9,0.1-0.1l-1.1,1.1c3-1-2.9,1,0.5-0.3
		c-0.5,0.2-4.1,0.8-2.3,0.7S96.8,20,96.9,20H91c-8.4,0-16.4,7.4-16.1,16.1S82,52.1,91,52L91,52z"/>
</g>
<g class="st0">
	<path class="st4" d="M225.4,0.5v-1.8l-2.2,8.1c-1.4,2.4-3.8,4.2-6.5,4.7c-1.2,0.2-0.9,0.3,0.8,0.2c1.6,0.1,3.3,0,4.9,0.1
		c3.6,0.1,7.2,0.3,10.7,0.3c2.8,0,5.6,0,8.4,0c0.8,0,1.6,0,2.3,0c1.2,0,1,0-0.4,0c-2.2-0.8-0.8-0.4,0.4,0.5l-7.4-9.6
		c-0.8-2.8,0.9-5.7,2.9-7.5c0.8-1.1,1.9-1.9,3.2-2.3L241-6.6c-0.3,0-4,0.4-2.3,0.3c1.7-0.1-2.5-0.1-2.8-0.1
		c-5.7-0.3-11.3-1.3-17.1-1.1c-4.5,0.2-8.9,1.2-13,3l-3.1,1.3c-0.9,0.4-1.7,0.9-2.6,1.4s-3.8,1.5-5.7,2.3c-1.7,0.6-3.3,1.4-4.9,2.1
		l1.9-0.8c-1.8,0.5-1.3,0.5,1.6-0.1l8.1,2.2l-0.6-0.3l5.8,5.8l-0.4-0.7l1.6,12.4l0.1-0.4l-7.4,9.6c-5.8,3-8,1.6-3,1.8
		c2.8,0.1-0.1-0.2,2.9,0.3c5.1,1,10.3,1.6,15.6,1.7c3.5,0,7,0.2,10.5,0c2,0.1,2.1,0.1,0.4-0.1c-1.3-0.6-1.1-0.4,0.6,0.5
		c2.1,1.2,4.4,2.2,6.7,3c10.4,3.7,22.3,1.5,28.2-8.7c2.9-5.4,3.8-11.8,2.3-17.8c-2.2-8-9.2-11.8-17-12.8c-7-0.9-13.6,5.6-15.5,11.8
		c-0.6,2.2-1,4.6-1,6.9c6.8-8,8.3-10.8,4.3-8.5c0.4-0.4,1-0.4,1.5-0.2c-0.7,0.2-6.7-0.3-3.7,0.1c-2.1-0.3-4-0.8-6-1.3
		c-6.9-1.6-13.1-1.1-19.5,2.2c-1.8,0.9-3.7,2-5.4,3.1c-0.8,0.6-1.6,1.1-2.5,1.6c1.6-0.6,1.8-0.7,0.6-0.3c-1.7,0.6-3.5,1.2-5.3,1.6
		c3.7-0.8-4.1,0.4-3.9,0.1c4.3,1.5,5.2,1.6,2.8,0.4c-0.8-0.5-1.6-1-2.5-1.4c-3.5-1.7-7.3-2.7-11.2-2.9c-10.8-0.7-26.7,4.1-29.2,16.2
		c-2.2,10.5,4.6,19.8,15.5,20.3h0.7c8.4,0.4,16.4-7.7,16.1-16.1c-0.2-8.8-7.3-15.9-16.1-16.1h-0.7l15.5,20.3l0.2-0.8l-4.1,7.1
		c-2.4,1.8-2.5,2.1-0.3,0.8c-0.7,0.3-1.4,0.4-2.1,0.3c1-0.1,2-0.1,3.1-0.1c-0.8-0.1-1.5-0.3-2.2-0.8c-0.3,0.2,8.5,3.9,7.4,3.6
		c2.9,0.8,5.9,1.2,8.9,1.2c10.6-0.2,19.3-3.9,28.2-8.9c1-0.4,1.9-1,2.7-1.5c-1.5,1-3.4,1.4-5.2,1.1c0.8,1,4.8,1.1,6,1.3
		c6.1,1,12.1,1.7,18.2,0.2c5.2-1.3,10.9-3.9,14.6-7.8c2.4-2.6,4.2-5.7,5-9.2c0.3-1.9,0.5-3.7,0.8-5.6c0.3-2.4,0.2-1.8-0.2,1.6
		l-15.4,11.8l0.7,0.1l-11.4-4.7l0.8,0.9l-4.7-11.3c0.1,1.4,0.1,1.6,0.2,0.6c0.3-2.7,1.8-5.1,4.2-6.5l8.1-2.2c-0.7,0.1-2.6,0.8,0,0.3
		c0,0-2.6-0.7-1-0.1s-0.8-0.5-1-0.5c-1-0.6-1.9-1.1-3-1.6c-5.1-2.4-10.2-3.1-15.9-3.1c-4.2,0-8.6,0.3-12.8,0c1.5,0.1-2.5-0.5-3-0.6
		c-3.2-0.5-6.5-1-9.7-1.3C188.2-1,176,3.8,176,16.7c0,7.2,5.5,14.8,12.7,16.5c5.8,1.3,10.7-0.2,16.1-2.5c2.4-1-1.5,0.2-1.6,0.6
		c0.9-0.4,1.7-0.8,2.7-1c2.8-1,5.5-2.2,8.2-3.4c1.3-0.6,2.5-1.2,3.8-1.9c-3.4,1.9,2.3-1,2.6-1.1c-0.6,0.2-1,0.6-1.6,0.7
		c8.9-0.2,17.4,1.7,26.4,0.5c10.4-1.5,18.7-6.1,22.2-16.6c1.7-5.2,1.4-13.1-1.6-17.8s-8.4-7.8-13.8-9.5c-4.9-1.5-10.3-1.1-15.4-1.1
		c-5.1,0-10-0.2-15.1-0.3c-5.5-0.1-10.8-0.1-15.9,2.1c-7.8,3.3-12,10.4-12.2,18.8c-0.2,8.4,7.5,16.4,16.1,16.1
		C218.1,16.1,225.2,9.5,225.4,0.5L225.4,0.5z"/>
</g>
<g class="st0">
	<path class="st5" d="M250.5,22.4c3,0,6.2-0.3,9.2,0l-8.1-2.2l0.9,0.4l-5.8-5.8c4.5-11.9,4.8-16,0.8-12.2c0.5-0.5,0.3-0.5-0.5,0.2
		c-1.7,1.1-3.3,2.2-4.8,3.5c-3.9,3-6.6,7.3-7.8,12.1c-1.8,7.4,1.5,14.5,7.9,18.6c-0.2-0.1,4,2.1,5.3,2c2.6,0.8,2,0.1-1.8-1.9
		c-0.7-0.8-1.3-1.8-1.5-2.9v-8.5l-0.2,0.9l4.1-7.1l1.7-1.2c-0.5,0.3-1,0.6-1.5,0.9c-0.8,0.5-0.9,0.5-0.1,0.1
		c0.8-0.4,0.8-0.4-0.1-0.1c-0.7,0.1-3.3,0.4-1.4,0.3c-1.3,0.1-2.5,0-3.8,0c-8.7-0.1-15,3.4-19.5,10.9l5.8-5.7
		c-0.7,0.5-1.4,0.9-2.2,1.3c1.5-0.8,1.1-0.4-0.3-0.2c-2.6,0.5-5.2,1-7.7,1.7c-1,0.2-1.9,0.5-2.8,0.8c-0.3,0.1-2.7,0.6-1.4,0.4
		c1.3-0.2-1.8,0-2-0.1c-0.9,0-1.7-0.1-2.5-0.1c-9.4,0.3-18.2,7-18.2,17.1c0,7.4,5,14.4,11.3,17.9c11.2,6.2,24.7,4.9,36,0
		c4.2-1.8,8.2-3.9,12.1-6.2c1.2-0.7,2.4-1.4,3.7-2c0.3-0.1,2.8-1.3,1.9-0.9c-1,0.4,1.9-0.5,2.1-0.6c1.4-0.3,1.1-0.4-1-0.2
		c-1.4,0.2-2.8,0-3.9-0.8l-5.7-5.8l0.4,0.8l-1.6-12.4l-0.1,0.8l4.1-7.1c1.2-1.4,2.8-1.3,0.4-0.5c-2.5,0.9,2-0.5-0.6,0.2
		c-1,0.3-3.5,0.9-1.2,0.5c-1.2,0.2-2.5,0.1-3.8,0.2c-6.7,0.4-11.9,3.2-17.6,6.3c-7.4,4-10.4,14.8-5.8,22c4.6,7.5,14.3,10,22,5.7
		c0.5-0.3,5.3-3.1,5.4-2.9c0.2,0.4-7.1,0.8-3.3,0.9c1.1,0,2.1-0.1,3.2-0.2c6-0.5,11.9-2.1,17.3-4.7c5.2-2.6,9.8-7,11-12.8
		c2-9.4-3.6-18.7-12.9-21.3c-11.6-3.1-22.5,2.4-32.2,8.1c-2,1.1-4,2.2-6,3.1c-2.7,1.2-1.2,0.8-4.1,1.5c-2.4,0.6,1.8,0.1-0.7,0
		c-0.3,0-3.4-0.1-2,0c1.3,0.1-1.7-0.4-1.9-0.4c-1.3-0.4-1-0.1,0.9,0.8c2.2,0.9,3.8,2.9,4.2,5.3l-1.6,12.4l0.5-0.7l-9.6,7.4
		c-4.1,1.1-0.5,0.4,0.8,0.4c2.6-0.1,5.1-0.3,7.6-0.8c3.4-0.5,6.7-1.7,10.1-2.4c9.3-2,15.9-5,21.3-13.2l-5.8,5.8
		c-1,0.4-6.6,1.1-3.1,1.5c1.3,0.1,2.7,0.1,4-0.1c3.3-0.2,6.6-0.7,9.8-1.5c5.8-1.7,13.1-5.4,16.1-11c4-7.6,2.2-15.6-2.8-22.1
		c-4.3-5.5-9.6-7-15.9-9.3l7.1,4.1l-0.5-0.5l4.1,15.6c-0.8,2.2-2.4,4-4.4,5.1l3.1-2c2.5-1.6,4.9-3.5,7.1-5.5c4.2-4,6.6-9.6,6.6-15.4
		c-0.1-6.9-3.9-13.3-9.9-16.7c-5.4-2.9-11.5-2.2-17.4-2.2c-8.4,0-16.4,7.4-16.1,16.1C234.8,15,241.5,22.4,250.5,22.4z"/>
</g>
<path class="st5" d="M49,39c-10.3,0.1-15.4,7.3-22.2,13.7c-3.2,3,2.1-1-1.6,1.2c-1.3,0.8-2.6,1.9-4,2.6c2-1,0.4,0.2,0,0
	c-1.6,0.3-1,0.2,1.8-0.2c-1.8,0-1.1,0.2,2.1,0.4l7.1,4.1l-0.3-0.3l4.7,11.3v-0.5L20.4,87.5c-3,0.2-1.5-0.2,0,0.1
	c2.2,0.4,4.4,0.7,6.6,0.9c3.7,0.1,7.4-0.2,11-1c5.8-1.4,11.3-3.9,16.2-7.3c1.9-1.3,3.9-2.4,5.9-3.5c0,0,3.8-1.8,2.2-1.2
	c-1.9,0.6,2.8-0.5,0.2,0c3.5-0.6,7.2-0.3,10.6-1.2c1.7-0.5,3.4-1.2,4.9-2c1-0.5,7-5.2,2.7-2l-8.1,2.2l0.8-0.1L58.2,60.4l0.1,0.7
	v-8.5l-0.3,0.6l4.1-7.1c0.8-0.9,1.9-1.5,3-1.9c1.3-0.5,1.3-0.6,0.1-0.1c-0.7,0.2-1.4,0.4-2.1,0.7C55.5,48,49.1,55.6,52,64.5
	c2.4,7.4,11.4,14.7,19.7,11.3c3.1-1.3,6.5-2,9.4-3.9c7.3-4.6,9.4-11.8,8-19.9c-1-6.2-9.1-12.6-15.5-11.8c-2.4,0.2-4.8,0.7-7,1.5
	c-1.7,0.7-4.8,3.6-6,4c0.4-0.1,5-3.4,5.5-2.6c-0.2-0.3-3.9,0.3-4.2,0.4c-6.7,0.7-13.3,2.8-19.1,6.2c-2,1.1-3.9,2.4-5.9,3.7
	c-1.1,0.7-2.2,1.4-3.3,2c-0.7,0.4-2.2,0.8-0.6,0.3c-0.1,0-4.1,1-2.9,0.8s-3-0.1-3-0.1c1.4,0.2,1.5,0.2,0.1-0.3
	c-2.2-0.6-4.4-0.9-6.7-0.7c-9,0.7-15.5,6.8-16.1,16.1C3.6,86.2,20,90.8,31.3,87c5.8-2,11.2-5.7,15.9-9.5c1.6-1.3,3.2-2.8,4.7-4.2
	c1-0.9,1.9-1.9,2.8-2.9c3.4-3.8,0.4,0.6-5.6,0.7C57.3,71,65.4,63.8,65,55S58,38.9,49,39z"/>
<path class="st6" d="M100,58.4c0.5,1.2-1.3,6.5-0.3,4.5c0.8-1.6-1,1.1-1.3,1.4c-1,1.2-1.6,0.3,0.4,0.2c-2.2,0.1,0.8,0,1.6,0
	c5.4-0.2,10.9,0.3,16.3-0.1c3.7-0.2,7.3-1,10.7-2.4c2.1-1,4.3-1.7,6.6-2c-3.6,0.7,2.2-0.2-0.5-0.2c-2,0.1,2.2,1.1-0.4-0.1
	c0.7,0.3,1.3,0.7,2,1c3.6,1.5,0.6,1.4-2-3.2l5.8-22c1.4-0.8,3-1.2,0.5-0.5c-1.1,0.4-2.2,0.8-3.3,1.2c-2.6,1-5.3,2-8,2.8
	c-2.3,0.7-4.7,1.2-7.1,1.7c-1.5,0.3-3,0.5-4.5,0.7c1.6-0.2-0.8,0.1-1.2,0.1l-6.1,0.8c3.2-0.4-3.1,0.4-3.3,0.4
	c-3.1,0.6-6,1.7-8.7,3.3c-1.9,1.1,1.8-0.2-0.2,0s1.8,0,2,0c1.7,0.2,1.3,0.2-1.1-0.1c-0.9-0.1-1.8-0.3-2.6-0.4c-3-0.1-6,0.7-8.6,2.2
	C80,52.1,76.6,60.2,78.4,68c1.9,8.5,9.6,12.9,17.5,14c4,0.4,8,0.3,12-0.4c1.2-0.2,2.5-0.4,3.7-0.6c0.5-0.1,2.7-0.4,1-0.2
	c2.7-0.3,5.3-0.5,8-0.5c0.8,0,4.8,0.4,1-0.1c-3.6-0.5,1.8,1.3-2.9-1l-5.8-5.8l0.3,0.4V57.7l-0.4,0.6l5.8-5.8
	c4.3-1.8,0.3-0.7-0.6-0.5c1.7-0.3-0.1,0-0.8,0c-3.3,0.2-6.6,0.4-9.9,0.3c-6.6-0.2-11.7-1.8-18.8-2c-4.1-0.1-8.2,1-11.8,3.1
	c-3.3,2.1,5.7-0.3,2.6-0.6c-1.1,0-2.2,0.1-3.4,0.2c-3.3,0.2-6.8,0.1-10,1c-1.3,0.4-5,2.9-6,2.6l4-1.1c-1.6,0.2-3.3,0.4-4.9,0.7
	c-3.1,0.5-6.1,1.6-8.8,3.2c-1.7,1.1-3.4,2.3-4.8,3.7c-0.5,0.5-1,1-1.5,1.5c-0.7,0.6-0.7,0.7,0,0.1c0-1,2.9-1-0.1-0.4
	c-5.3,0.9,3-0.2-2.3,0.4c-2.8,0.3-5.7,0.6-8.5,0.7c-6.8,0.2-13.3-0.4-20.1,1c-7.4,1.5-16.7,4.9-20,12.3c-3.2,7.1-2.5,13.4,2.5,19.4
	c5.7,6.8,15.5,6.5,23.3,5.4c8.3-1.2,13.7-12.2,11.2-19.7c-3-9.1-10.8-12.5-19.7-11.2c1.1-0.2,3.4,0.2,1.3-0.6l7.1,4.1l-0.5-0.6
	L20.6,95c-0.8,1.6-2.1,2.8-3.7,3.5c-0.9,0.4-0.8,0.4,0.2,0c1.4-0.2,2.8-0.9,4.3-1.1c-2.4,0.3,2.8,0.1,2.7,0.1c1.2,0,2.3,0,3.5,0
	c6.5,0,12.9-0.4,19.3-1.3c7.6-1,14-3.4,19.7-8.8c3.9-3.7-2.3,0.5-2.3,0.6c0-0.1,4.9-1.2,1.2-0.5c2-0.2,3.9-0.6,5.9-1
	c-2.6,0.8,9-3.5,3-1.5c-2.1,0.7-0.9,0.2,0.8,0.2c1.1,0,2.3-0.1,3.4-0.2c4.3-0.3,8.2-0.8,12.1-2.7c1.2-0.4,4.5-1.7-0.1-0.4
	s-0.7,0.8,0.9,1c5.6,0.6-1.6-0.2,1.9,0.2c2.4,0.3,4.8,0.7,7.1,1c6.4,0.7,12.8,0.7,19.2,0c8.5-0.9,16.3-2.2,21.2-10
	c2.9-4.6,3-11.6,0-16.2c-5.2-7.7-13.3-9.6-22.1-9.4c-4.4,0.2-8.8,0.6-13.2,1.3l-4.2,0.6c-2.6,0.2-0.9-0.7,0.8,0.7l7.4,9.6l0.3,2.4
	l-2.2,8.1l0.3-0.7l-5.8,5.8l0.7-0.4l-8.1,2.1c-4.4-0.5,0.3,0.2,2,0.3c1.6,0.1,3.1,0,4.6-0.3c3.5-0.4,6.9-1.4,10-2.9
	c0.3-0.2,2.7-1.1,2.7-1.4c0,0.7-6.2,1.1-0.4,0.4c2.2-0.3,2.8-0.4,1.8-0.2c-0.6,0.1-0.4,0.1,0.6-0.1c2.3-0.3,4.7-0.6,7-0.9
	c5.2-0.6,10.3-1.7,15.2-3.2c5.4-1.8,11.6-3.5,16.7-6.2c7.7-4.2,9.9-14.6,5.8-22c-4.3-7.7-16.6-13.2-25.2-13.4
	c-5.3-0.1-10.6,0.8-15.5,2.6l-3.8,1.6c-1.9,0.9-2.2,1-0.8,0.2c3.1-0.5-3.2,0-3.9,0c-9.7,0-20.7-0.8-29.4,4.2
	C72.6,42.1,64.7,55.8,69,67c3,7.8,10.9,14,19.7,11.2C96.4,75.7,103.3,66.8,100,58.4z"/>
<g class="st0">
	<path class="st1" d="M13.1,66.5C9,66.7,4.9,67.2,0.9,67.9c0.1,0-4.9,0.7-3,0.5c-2.5,0.2-5,0.5-7.5,1c-11.4,2.9-19.5,16.6-12.5,27.5
		c6.3,9.8,17.1,9.1,26.8,6.3c0.6-0.2,5-2,2.9-1h1.6c-1.6-0.3-1.9-0.4-0.8-0.1c1.9,0.9,4.7,0.9,6.9,0.9c2.4,0,5,0.7-0.2-0.6L3.9,91.1
		L4,91.3l7.4-18.1L11,73.4l8.1-2.2c-5.5,0.4-10.6,0.2-15.7,2.9c-5.9,3.1-9.6,11.7-7.4,18.1l0.2,0.5C-2,97.8,1.8,103,7.5,104
		c7.8,1.3,15.7-0.3,23.3-2c3.6-0.8,7-2.4,10.5-3.3c-2.3,0.6,1.7,0,2.3,0.1c1.7,0.1,3.4,0.3,5,0.4c3.9,0.2,7.8-0.1,11.5-1
		c1.5-0.3,2.9-0.8,4.3-1.3c2.6-1.1-3.8-0.3,0.5,0.1c11.6,1,20.3-6.5,21.3-17.9L70.3,95c2.6-0.2-2.2-0.7-0.4-0.1
		c1.9,0.5,3.9,0.7,5.9,0.8c2.7,0.2,5.4,0.1,8.1,0.1c8.4-0.1,16.4-7.3,16.1-16.1c-0.4-8.9-7-15.8-16.1-16.1c-1.9-0.1-1.4,0,1.4,0.3
		c-1.6-0.4-3.3-0.6-5-0.6c-8,0-14.7,6-15.8,13.9c-1,7.6,3.7,15.8,11.5,17.6c3,0.6,6.1,1,9.3,1c8.4,0.4,16.4-7.6,16.1-16.1
		c-0.2-8.8-7.3-15.9-16.1-16.1c-0.9,0-4.4-0.7-0.7,0.1l-4.3,31.5c-4.1-0.7-3.6-0.6,1.6,0.1c0.7,0.1,1.4,0.2,2.1,0.2V63.6
		c-1.2,0-7.2,0.8-8.1-0.1c0.6,0.6,3.4,0.5,0.6-0.1c-2-0.5-4.1-0.7-6.1-0.6c-9.3,0.6-15.2,6.9-16.1,16.1l-0.1,0.7l4.7-11.3
		c0.7-0.7,11-3.4,6.2-3.7c-1.6,0-3.2,0.1-4.8,0.4c-2.4,0.3-4.8,0.8-7.1,1.6c-1.3,0.5-1.9,0.5-0.1,0.3c-1.2,0.1-2.4,0.1-3.6,0
		c-2.5-0.1-5-0.4-7.6-0.4c-6.1,0-11.3,2.2-17.1,3.8c-2.5,0.7-5.1,1.3-7.7,1.8c1.8-0.4-1.8,0.2-2.3,0.3c-1.4,0.3-3.9-0.2,1,0.7
		l11.2,11.2L27,83.7l-7.4,18.1l0.7-0.4l-8.1,2.2c5.1-0.6,10.9,0.3,15.3-2.8c5.8-4,9.5-10.9,7.4-18.1c-1.8-6.4-7.2-11.1-13.8-11.9
		c-1.7-0.3-3.4-0.3-5.1-0.2c-3.4,0.3,2.2,0.8-1-0.2C10.4,69.2,4.4,70-0.2,71c-1.9,0.4-3.7,1.1-5.6,1.6C-11,74.1-6,72.4-4,73.2
		L7.2,84.4l-0.3-0.8v8.5l-0.8,1.7l-5.8,5.8c-4.6,0.9-5.7,1.2-3.4,0.9l2.7-0.4c2.3-0.3,4.7-0.6,7-1c0.5-0.1,4.5-0.7,1.6-0.3
		c1.6-0.2,3.2-0.3,4.8-0.3c8.4-0.2,16.5-7.3,16.1-16.1C28.9,74,22.2,66.3,13.1,66.5L13.1,66.5z"/>
</g>
<path class="st1" d="M87,91.7l0.3,0.4l5.8-22l-0.8,0.4l8.1-2.2c-1.7,0.2-3.5,0.4-5.2,0.7c1.6-0.2,1.5-0.2-0.5,0L90,69.2
	c-5.4,0.3-10,1-14.9,3.4c-4,2-6.9,5-10.1,8.1c-1.3,1.2-2.7,2.4-4,3.6C60,85,60.2,84.9,61.3,84c-0.9,0.6-1.8,1.1-2.8,1.5
	c2.2-0.9-2.1,0.4-2.6,0.6c-2,0.3-2.2,0.4-0.7,0.3c-1.1,0.1-2.3,0.2-3.4,0.3c-0.4,0-5-0.2-2,0.3c-1.9-0.5-3.8-1.1-5.7-1.8
	c-5.6-1.8-11-1.7-16.8-0.8h1.2c-2.8,0-5.6,0.7-8.1,2.2c-1.3,0.6-1.2,0.6,0.5-0.1c-1.1,0.3-2.2,0.6-3.3,1
	C5.8,91,2.4,105.3,10.6,114.3l0.3,0.3c5.7,6.2,17.1,6.2,22.7,0c6.1-6.3,6.1-16.4,0-22.7l-0.3-0.3l-7.2,26.7
	c3.6-1.1,7.1-2.4,10.4-4.1l-8.1,2.2c1.9-0.2,3.7-0.4,5.6-0.7c-1-0.1-1-0.1,0.1,0c1.2,0,1.1,0-0.2-0.1c1,0.3,2,0.7,3,1.1
	c3.8,1.3,7.7,2.1,11.7,2.2c9.3,0.2,18.5-1.9,26.9-6c3.6-1.9,6.7-4.7,9.7-7.4c1.3-1,2.6-2.2,3.7-3.4c1.6-1.5,1.6-1.7,0-0.6
	c1.4-0.8,1.6-0.9,0.5-0.4c-1,0.5-0.8,0.4,0.7,0c-2.1,0.3-2.2,0.3-0.1,0.2c1.6,0,3.1-0.1,4.7-0.2c2.5-0.2,4.9-0.5,7.4-0.9
	c-3.2,0.4-2.3,0.3,2.5-0.4c1.6-0.6,3.1-1.3,4.7-2c7.2-3.4,10.7-15.5,5.8-22l-0.3-0.4c-5.1-6.6-14-10.9-22-5.8
	C86.3,74,81.6,84.6,87,91.7L87,91.7z"/>
<g class="st0">
	<path class="st1" d="M50.3,86.7c-7.1,0-14.2,0.6-21.3,0.8c-1.7,0-3.5,0-5.2,0l-1.7-0.1c1.4,0.2,1.2,0.1-0.7-0.3
		c-0.3-0.1-4.1-1.7-2.5-0.9c1.6,0.7-4.2-3.2-0.7,0c-6.2-5.7-16.7-6.6-22.7,0c-5.7,6.2-6.6,16.6,0,22.7c15.5,14.2,36,9.8,54.9,9.9
		c8.4,0,16.4-7.4,16.1-16.1S59.4,86.7,50.3,86.7L50.3,86.7z"/>
</g>
<g class="st0">
	<path class="st7" d="M179.7,105c11.7,0,23.8,0.6,32.6-8.8c2-2.2,3.7-4.8,5-7.5l1.6-3.8c0.6-1.7,0.5-1.6-0.2,0.4
		c0.8-1.5,0.7-1.4-0.5,0.1c-1.6,1.3-1.5,1.5,0.2,0.4c-1.6,0.6-1.4,0.6,0.4,0c1.1-0.2,2.2-0.5,3.3-0.7c-1.5,0.1-1.2,0.2,0.8,0
		c1.2,0,2.4,0,3.6,0c3.1-0.1,6.1-0.5,9.1-1.2c5.1-1.4,9.1-4.1,12.9-7.7c-3.2,3,3.4-1.8,0.5-0.2c2-0.4,2.2-0.6,0.7-0.5
		c1.1-0.1,2.3-0.2,3.4-0.2c6.3-0.1,11.3-0.4,17.1-3.5l-23.6-9.6c0,0.2-0.7-3.9-0.6-2.1l-0.1,0.4c-0.2-2.1,0.7-4.2,2.4-5.4
		c-0.7,0.7,2.5-2.7,2.7-2.3c-0.2-0.3-3.9,1.4-3.3,1.2c-4.8,2-8.3,5.3-11.8,9c-1,1.1-2,2.3-3.2,3.3c1.8-1.6-0.1,0.4-0.6,0.3
		c0.1,0,1.5-0.2,1.5-0.3c0.8-0.6-0.3,0.1-1.1,0.1c-1.1,0-2.2,0-3.3,0c-1.8,0-3.6-0.1-5.5-0.1c-10.5,0.4-19.6,8-25.3,16.4
		c-0.4,0.6-0.8,1.4-1.3,2c0.6-0.8,1.4-1.4-0.4,0c1.2-0.9,3.4-1.5,0.9-1c2.8-0.5,4.4,0.8-2,0.2c-0.3,0-2-0.1-0.3,0
		c2,0.2-0.9-0.2-1.1-0.2c-1.4-0.1-2.8,0-4.2,0c-10.4,0-19.9,1.1-26.1,10.6c-7.7,11.9,0.8,26,13.8,28.1c5.2,0.9,10.4,1.4,15.5-0.3
		c5.2-1.7,9-4.6,13.2-7.7c1.6-1.1,3.1-2.3,4.7-3.4c0.7-0.5,1.4-0.9,2.1-1.3c0.3-0.2,3.3-1.5,1.7-0.9c-1.6,0.6,3.8-1,2.1-0.6
		c-1.8,0.4,1.7-0.1,2-0.2c1.2-0.1,2.4-0.1,3.6-0.2c11.3-0.7,20.4-4.1,28.8-11.7c1.6-1.4,3-3,4.3-4.7c0.3-0.4,6.6-10,5.8-9.9
		c0,0-2.8,3.5-1.5,1.9c1.2-1.4-1.5,0.4,0.2,0c1-0.2,0.9-0.2,0,0c-2.9,0.7-5.6-0.2-8.2-2.7l-4.1-7.1c1.3,3.5,0-6,2-6.1
		c-0.1,0-3.3,2.9-1.4,1.5c1.6-1.2-1.5,0.9-1.9,1c-1.4,0.7-2.8,1.2-4.2,1.9c-5.1,2.5-10.1,5.4-15,8.4c-5.2,3.2-11.4,6.5-15.4,11.2
		l-2.5,3.3c0.9-1.1,0.9-1.2,0.1-0.3c-1,0.9-2.1,1.8-3.2,2.7c-2.4,2-1,0.8,0.2,0.3c-1.1,0.4-2.3,0.7-3.5,1.1
		c-1.1,0.4-2.1,0.7-3.2,0.9c2-0.4-1.3,0-1.9,0c-3,0.2-6,0.2-9,0c2.3,0.3-1.4-0.8-0.5-0.4c-0.9-0.7-1.8-1.3-2.7-1.8
		c-3.6-2.3-7.7-3.8-12-4.4c-3.7-0.5-7.3-0.7-11-0.5c-1.2,0-2.4,0.2-3.6,0.4c3-0.4-8,1.1-5.5,0.7c-7.9,1.1-14,2.6-20.3,7.8
		c-9.3,7.8-4,24.1,7.1,26.8c11.6,2.8,21.2,0.9,30.2-7c0.5-0.5,1.1-1,1.6-1.5c1.4-1.2,1.4-1.3,0-0.2c2.5-1.3,1.7-1.4-2.4-0.1
		c0.7,0,1.5,0,2.2-0.1c9.7-0.6,2-0.5,2-0.3c0.1,1.2,7.4,1.6,7.5,1.6c10.8,1.1,17.7-11.1,15.5-20.3c-2.9-11.8-16.6-16.3-27.3-13.3
		c-3.9,1.1-7.4,2.9-11.4,3.7c-1.6,0.3-3.1,0.6-4.7,1l-3.2,0.9c-3.5,0.7-2.1,0.8,4.1,0.3l7.1,4.1l-0.7-0.7l4.1,7.1l-0.3-0.9v8.5
		c-0.9,5-4.3,5.4-1.6,3.2c0.8-0.6,1.4-1.4,2.2-1.9c-2.2,1.6,1.6-0.8,0,0.1c-1.3,0.7,2.4-0.8,2.6-0.8c5.8-1.7,11.8-3.3,16.7-7.1
		c1.9-1.5,4.2-3.1,5.2-5.4l0.7-0.9l-5.9,4.4c1.9-1.2,1,0.3-0.3-0.1c-1.2-0.4,2.6,0.6,3.1,0.7c7.5,1.5,15.2,0.5,22.2-2.7
		c7.6-3.6,10.2-15.1,5.8-22c-5-7.8-13.8-9.6-22-5.8l1.7-0.9c-1.6,0.3-1.8,0.4-0.6,0.2c2.5-0.2-2.1-0.4-0.7-0.1
		c-1.7-0.3-6.1-1.4-9.1-1.4c-7.7,0-15.2,2.6-20,8.9c-2.1,2.7-3.7,3.4,1-0.7c0.9-0.8,1.7-0.6,0,0c-2.3,0.8-4.7,1.4-7,2.1
		c-6.3,2-12.2,5.3-17.1,9.8c-4.7,4.1-8.3,9.7-8.3,16.2c0,9.9,8.3,17.5,17.9,17.9c5.4,0.2,11.1-2.1,16.4-3.1c2.4-0.6,4.7-1.4,7-2.3
		c0.7-0.2,3.3-0.7,3.7-1.3c-1.5,2.2-7.7-2.2-8.3-2.7l-4.1-7.1l0.2,0.8l15.5-20.3c7.3,0.8-5-1.5-4.7-1.5c-2.4-0.2-4.6,0.6-7,0.4
		c3.4,0.2-0.8-0.1-1.6,0c-3.6,0.3-7.1,1.3-10.3,3.1c-3.5,2-6.7,4.5-9.6,7.4c-2.4,2.3,0.6,0.2,1.2-0.3c1.7-0.1,1.6-0.2-0.4-0.2
		c1.6,0.2,1.5,0.1-0.4-0.3l7.1,26.8c-0.1,0.1-2.7,2.4-3.3,2.1c0.9-0.2,1.7-0.4,2.6-0.6c0.5-0.1,2.8-0.4,0.2-0.1
		c1.7-0.3,3.5-0.5,5.2-0.7c3-0.4-1.7,0,1.2-0.1c1.2-0.1,2.4-0.1,3.5-0.1c0.9,0,1.8,0.1,2.6,0.1c3.6,0,1,0.1,0.1-0.4
		c4.3,2.4,8.3,5.1,13.2,6.3c5.4,1.4,11.2,1.2,16.7,1c11.1-0.3,21.2-3.5,29.8-10.6c1.8-1.4,3.5-2.8,5.1-4.4c1.3-1.4,2.1-3.3,3.6-4.5
		c-0.1,0.1-1.6,2.1-0.4,0.7c1.3-1.5-2.3,1,0,0.1c1-0.5,1.9-1.1,2.8-1.7c2-1.3,4-2.7,6.2-3.9c7.5-4.4,16.1-7.7,23-13
		c10.2-7.9,15.7-20.8,9.3-33c-6.4-12.2-23.7-11.6-34-5.2c-4.5,2.7-8.1,6.8-10.3,11.6l-1.6,3.8l0.2-0.8c1.4-1.8-0.2,0.3-0.5,0.5
		c-0.8,0.8-1.5,1.5-2.3,2.2c-0.3,0.3-3.3,2.4-1.9,1.6c1.4-0.9-0.9,0.4-0.9,0.4c1.5-0.7,1.7-0.8,0.6-0.5l-2,0.5
		c0.1,0-2.7,0.5-1.4,0.3c1.4-0.2-2.8,0.1-3.2,0.1c-6.7,0.2-13.2,1.7-19.4,4.3c-5,2.2-9.2,5.6-13.6,8.8c-0.6,0.5-1.3,1-1.9,1.4
		c-0.7,0.5-1.4,0.9-2.1,1.4l0.9-0.3c-0.4-0.1,2.4-0.3,2.3,0c-0.1,0.3-3.6-0.8-3.8-0.9l7.1,4.1l-0.9-0.7l4.1,7.1l-0.3-1v8.5l-4.8,5.7
		c-4.9,1-6.2,1.4-4,1.3c1.2,0.1,2.5,0.1,3.7,0h7.7c2.4,0,4.7-0.2,7-0.6c2.2-0.4-0.5,0-1.2,0.1c4.4-0.7,7.7-1.2,11.8-3.2
		c2.6-1.4,5.1-3.2,7.2-5.3c1.5-1.4,2.8-3,4-4.7c0.2-0.3,2.5-3.8,1.4-2.4c-0.9,1.3,1.7-1.7,1.8-1.7c1.2-1.1,0.7-1.3,0.3-0.3l1.2-0.8
		c-4.4,0.8-5.5,1.2-3.3,1.2c1.3,0.1,2.6,0.2,3.9,0.1c12.2,0.2,25.1-5,32-15.7c1.1-1.8-1.4,0.5-1.7,0.9c0.8-1.1,4.6-1.5,5.8-2.2
		c3.3-1.9,6.2-4.5,8.3-7.6c4.2-5.8,5.1-13.4,3.8-20.3c-2-10.6-15.1-14.2-23.6-9.6c4.2-0.7,4.9-1,2.2-0.9h-3
		c-2.4,0.1-4.8,0.3-7.2,0.6c-5.2,0.7-10.2,2.5-14.7,5.2c-2,1.2-3.8,2.6-5.3,4.3c-1.9,2-1.1,1.7,2.6-0.9c-0.9,0.3-1.8,0.5-2.7,0.7
		c2.4-0.3-2.4-0.2-2.8-0.2c-3.1,0.2-6.2,0.5-9.3,1.1c-9.2,1.7-18.2,6.3-22.7,14.9c-0.9,1.6-1.6,3.2-2.2,4.9
		c-0.6,1.6-0.6,1.6,0.1,0.1c-1.5,2.4-1,2,1.6-1l-1.4,0.7c4.3-0.6,5-0.9,2.2-0.8h-11.5c-8.4,0-16.4,7.4-16.1,16.1
		S170.7,105,179.7,105L179.7,105z"/>
</g>
<g class="st0">
	<path class="st4" d="M53.6,121.1c-1.5,0-3.1,0.1-4.6,0.3c-4.4,0.7-5.7,0.8-3.7,0.5c1.1-0.2,0.7-0.2-1,0c-3,0-5.9,0.1-8.9-0.1
		c-7-0.5-14.7-1.4-21.6,0.6c-10.2,2.9-17.4,14-13,24.4c4,9.6,14,11.3,23.2,10.2c3.6-0.5,7.1-1.1,10.6-2c0.5-0.1,4.3-0.9,2.8-0.5
		c-1,0.2-0.7,0.2,0.7,0.1l-1.8-0.3c8.5,1,17.1,2.9,24.9-2.1l3.3-2.5c-2.6,2.8-5.3,3.9-8.3,3.1c-1.2-0.3-0.9-0.2,0.9,0.3
		c0.7,0.3,1.4,0.5,2.1,0.6c4.3,1,8.7,1,13,0.2c2.5-0.4,4.8-1.2,7-2.4c-1.7,0.7-2.1,0.8-1,0.4s0.7-0.4-1.3-0.1c0.7,0,4.3,0.5,1.4-0.1
		c1.7,0.4,4.8,2.2,0.3-0.3l-7.4-9.6l0.1,0.3l1.5-12.4l-0.3,0.5l9.6-7.4c-0.7,0.3-1.5,0.5-2.2,0.5c1.6-0.3,1.7-0.4,0.4-0.3
		c-2.3-0.4-6,0.2-8,0.6c-1.3,0.3-2.6,0.6-3.9,1.1c-0.6,0.2-4.5,1.5-1.8,1c-8.3,1.6-17.1-1.3-25.5-0.2c-1.2,0.2-2.4,0.3-3.6,0.5
		c1.6-0.2,1.3-0.3-0.8,0c-1.8,0-3.6,0.1-5.4,0.1c-3,0-6-0.4-9-0.5c-7.7-0.4-15-1-21.8,3.4c-4.5,2.9-8.4,8.1-7.9,13.9
		c1.8,23.7,31.5,17.9,47.7,17.1c7.7-0.4,15.3,0.3,23.1,0.6c4.5,0.1,9.1-0.3,13.6-1.1c1.6-0.3,3.2-0.8,4.8-1.3
		c0.7-0.3,1.5-0.6,2.3-0.7c3-0.5,1.7-0.6-3.9-0.3l-7.1-4.1l0.3,0.3v-22.7l-0.4,0.5l7.1-4.1c-3.3,1.1,2.2,0-0.1,0.2
		c-1.4,0.1-2.7,0.3-4,0.5c-4.5,0.6-7.5,2.1-11.2,5c-9.4,7.4-3.9,24.5,7.1,26.8c9.9,2.1,20.2-0.2,30.2,0.4c6.5,0.4,12.6,0.9,18.5-2.4
		c5.9-3.3,10.9-10.8,10.6-17.6c-0.5-10-8.2-16.4-17.9-17c-2.9,0-5.8,0.2-8.7,0.8c-0.1,0-4.1,0.7-2.2,0.5c1.8-0.2-1.2,0-1.6,0
		c-1.2,0-3.1-0.6-1.1,0c-1-0.3-2-0.7-3-1c-3-0.9-6-1.5-9-1.8c-6.6-0.9-13.4-0.9-19.4,2.3c-7.4,4-10.3,14.9-5.8,22
		c4.6,7.5,14.3,10,22,5.8c-5.7,1.2-6.9,1.7-3.7,1.6h1.5c3.4-0.2-1.4-0.6,2.4,0.2c4.4,0.9,8.1,2.5,12.6,2.9c3.8,0.3,7.7,0.2,11.5-0.5
		c0.5-0.1,4.7-0.9,2.2-0.5c-1.3,0.1-1.1,0.1,0.5,0c1.8,0,1.5,0-1-0.2l-9.6-7.4l0.3,0.6l-1.6-12.4c0.4-1.9,7.2-8.7,9.2-7.3
		c-0.7-0.4-4.2-0.3-4.9-0.4c-3.2-0.2-6.3-0.2-9.4-0.2s-6.4-0.1-9.6,0.2c-1.6,0.1-3.2,0.4-4.8,0.4c-1.4,0-4.7-0.8,0.3,0.2l7.1,26.8
		l0.3-0.3l-7.1,4.1c2.7-0.7-4,0.3-0.7,0c1.4-0.1,2.7-0.3,4.1-0.5c4.6-0.6,8.7-2,12-5.4c6.1-6.3,6.1-16.4,0-22.7
		c-6.7-7.1-16.1-5.3-24.4-2.9c-3.2,0.9-3.6,0.8-7.5,0.7c-3.9-0.1-7.8-0.4-11.8-0.6c-6.9-0.3-13.9,0-20.8,0.7
		c-3.7,0.4-7.4,0.6-11.1,0.6c-1.8,0-3.6-0.1-5.4-0.3c-5.1-0.4-0.1-0.6,1.7,0.8l7.9,13.9v-0.6l-8,13.9c1.3-0.8,1-0.7-1,0.3
		c-2.2,0.2-2.3,0.3-0.4,0.3c1.9,0.3,3.9,0.3,5.7,0.4c2.8,0.2,5.7,0.5,8.5,0.6c5.1,0.1,10.1-0.2,15.1-1c1.9-0.3,2-0.3,0.3,0
		c1.2-0.1,2.3-0.1,3.5,0c1.9,0,3.8,0.2,5.6,0.3c4.9,0.5,9.8,0.6,14.6,0.1c2.4-0.2,4.8-0.7,7.1-1.4l2.7-1c1.7-0.5,1.6-0.5-0.3,0
		c4.2-0.1,8.5-0.2,12.6-1.4c8.7-2.6,13.8-11.6,11.4-20.4c-3-11-16.4-14.4-26.5-13.6c-2.7,0.2-5.4,0.8-8,1.8l-4,1.5
		c0.8-0.6,1.9-0.9,2.9-0.8c-2-0.1-1.8,0,0.5,0.2c-1-0.3-2.1-0.6-3.1-0.9c-2.6-0.6-5.2-0.9-7.9-0.8c-3.4,0-6.8,0.9-9.9,2.6
		c-1.4,0.9-2.7,1.9-4,3c1.6-2.3,3.6-3.2,5.9-2.8c-0.2-0.1-4.7-0.4-2.3,0c-2.6-0.6-5.2-0.9-7.9-1.1c-4.3,0.1-8.6,0.7-12.8,1.7
		c-0.8,0.2-6.4,1.1-2.8,0.9c-1.1,0.1-7.2-0.4-2.5,0.5l9.6,7.4l-0.3-0.4l1.6,12.4c-0.6,1.7-1.5,3.4-2.7,4.8l-7.1,4.1
		c2.8-1.1-2.2-0.5,2.1-0.5c1.3,0,2.6,0,3.9,0.1c3,0.1,6.1,0.4,9.1,0.6c2.6,0.2,5.3,0.1,8,0s4.8-0.6,7.3-0.8c-2.5,0.2,1.7,0.1,2,0.1
		c8.4,0,16.4-7.4,16.1-16.1C69.3,128.5,62.6,121.1,53.6,121.1L53.6,121.1z"/>
</g>
<g class="st0">
	<path class="st3" d="M209.3,130.4c10.2,0.2,19.1-2.1,24.2-11.7c4.3-8.1,2.9-18.9-0.7-27.1c-4.5,8.8-5.2,11.6-2,8.4l-3.1,1.9
		c1-0.3,2.1-0.5,3.1-0.7c-1.7,0.2-1.9,0.2-0.8,0.1c0.7,0,1.3,0,2,0c-6.2-0.2-8.9-5.2-7.9-15c-1.5,1.5-2.1,4.4-2.8,6.4
		c-3.6,10.8-0.6,23.8,11.7,26.7c12.4,2.9,24.3-4.6,25.1-17.6c0.7-11.5-7.1-17.6-17.1-20.6c-11.3-3.4-24.6-2-28.7,11
		c-1.5,4.7-1.7,9.7-0.7,14.5c0.6,2.3,1.6,4.5,2.9,6.4c1,1.6,2.2,3,3.6,4.3c2.8,2.8,2.3,0.7-1.5-6.4l2.2-8.1l-0.4,0.8l5.8-5.8l2-0.9
		c-1.2,0.2-1.2,0.2,0,0.1c1.2-0.2,1.2-0.2,0.2,0c-0.7,0.1-1.4,0.1-2.1,0.1c-1,0-2,0-2.9,0c3.2,0-1.9-0.4-3.7-0.4
		c-8.9-0.3-16.7,4.3-19.4,13c-5.5,17.6,16.2,28.4,30.5,26.4c12.5-1.7,24.2-10.4,27.4-23c0.7-3.4,1.1-6.8,1.2-10.2
		c0.1-1.2,0.3-3.5-0.1-1.1c0.1-0.9,0.4-1.8,0.5-2.7c-0.3,2.4-0.1,0.7,0.5-0.6c0.8-1.8-0.9,1-0.9,1c0.2-0.5,2.2-1.4,0.3-0.3
		c1.7-0.4,2-0.6,0.9-0.5c-1.1,0.1-0.8,0.1,0.9,0.2l-8.1-2.2c-3.5-2.2-5.3-5.1-5.4-8.7c6.6-8.6,8-11.5,4.2-8.8
		c-2.3,1.2-4.3,2.7-6.2,4.4c-1.5,1.5-2.8,3.2-3.9,5c-0.4,0.8-0.9,1.6-1.2,2.4c-2.4,5.3-2.1,5.1,0.7-0.4c1.4-1.1,1.3-1.2-0.2-0.2
		c1.6-0.6,1.6-0.6-0.2,0c-2.2,0.7-4.4,1.6-6.5,2.7c-5.2,3.1-9,8.3-10.2,14.3c-1.8,8.2,2.4,17.7,11.2,19.7
		c8.1,1.8,17.9-2.4,19.7-11.2c0.6-1.9,0.2-1.6-1.1,1c-0.8,2.1-2.5,3.7-4.6,4.4c0.9,0.2,3.9-1.6,4.6-1.9c3.7-1.4,7-3.5,10-6.2
		c1.6-1.5,3-3.2,4-5.1l1.6-3.8c-0.9,1.8-1,2.2-0.4,1c1.8-2.7-5.8,4.2-2.1,2.1c1-0.6,2-1.3,2.9-2c7.6-5.7,11.4-13.8,9-23.3
		c-2.4-9.7-10.1-15.6-20.1-15.6c-15.5,0-28.9,13-31,27.9c-0.5,3.5-0.4,7.2-1.1,10.6c0.2-1.4,0.1-1.2-0.4,0.8l0.5-1.4
		c0.7-0.9,3.3-2.6,0.9-1.3c-0.4,0.2-3.8,1.6-1.7,0.9c1.1-0.5,0.9-0.5-0.6,0.1l1.5-0.2c-1.6-0.1-1.9,0-0.6,0.1c1.2,0.1,1,0.1-0.6-0.3
		c1,0.4,3.6,2.5,1.4,0.2l4.1,7.1l-0.5-1.3v8.6l0.3-1l-7.4,9.6c-1.9,1.3-4.3,1.7-6.5,1.1c1.9,0.3,3.9,0.6,5.9,0.7
		c1.9,0.1,3.8,0,5.7-0.2c5.4-0.5,10.6-1.2,15-4.6c5.9-4.6,8.2-12.4,6-19.5c-0.9-2.9-3.3-7.6-6-9.2c-2.5-2.5-2.1-0.8,1.1,5
		c0,1.1-0.4,2.1-0.9,3l-9.6,7.4c-3,0.9-4.5-0.3-0.9,0.7c3.7,1,5,3.1-1.1-1.8l-4.1-7.1c-0.5-1.5-0.5-3.1,0-4.5l4.1-7.1l-0.8,0.8
		l7.1-4.1c2.7-0.3,3.4-0.3,2.1-0.3c-1.3,0.1-0.6,0.2,1.7,0.5l7.1,4.1l-0.5-0.6l4.7,11.3c-0.1-1.7-0.2-1.6-0.3,0.5
		c0.2-0.8,0.4-1.7,0.7-2.5c-0.7,1.7-0.6,1.7,0.2,0l1.6-3.8c2.2-5.9,1-12.3-2.3-17.5c-6.9-10.8-18.8-11.7-30.2-9.5
		C210.5,72.5,201,82,201.1,93.7c0.1,4.4,1.4,8.8,2.9,12.9c0.3,1.1,0.4,1,0.2-0.5c-0.1,2.9,0.3,2.1,1.2-2.4c9.3-3.7,11.6-5.5,6.9-5.3
		c-1,0-1.9-0.1-2.9-0.1c-8.4-0.2-16.4,7.5-16.1,16.1c0.4,8.9,7,15.8,16.1,16.1L209.3,130.4z"/>
</g>
<g class="st0">
	<path class="st7" d="M-9.9,125.3c3.1,10.5,12.2,13.2,22.1,13.5c3.4,0.2,6.8-0.2,10.1-1.2c2.2-0.7,4.2-1.6,6.2-2.8
		c0.3-0.2,3.6-2.2,1.7-1.2c-1.9,1,2.3-0.6,2.5-0.6l1.6-0.3c-1.3,0.2-1.4,0.2-0.3,0.2c1.2,0,1,0-0.4,0l1.5,0.5
		c4.4,2.4-2.2-1.8,1.8,1.1c5.7,4.1,14.3,7.8,21.3,4.9c6.4-2.6,12.1-7.9,11.8-15.5c-0.2-7.2-4.9-13.4-11.8-15.5
		c-6.1-1.7-12.5-1.7-18.7,0c-3.8,1.2-7.3,3.1-10.3,5.8c-0.8,0.7-1.6,1.5-2.2,2.4c-1,1.3,1.1-0.5,1.4-0.8c1.4-1.2-0.9,0.2-1.8,0.4
		c2.4-0.5-0.5-0.1-1.6-0.1c-0.3,0-3.9,0.1-2,0.1c1.2,0.2,0.9,0.2-0.6-0.1l-4.3-0.6c3.5,0.5-0.9-0.2-2-0.3c-1.4-0.2-2.8-0.4-4.3-0.5
		c-4.2-0.4-8.4,0.5-12.1,2.5c-15.8,9.6-10.6,31.2,3.7,39.3c8.5,4.8,16.9,3.1,24.2-2.6c0.9-0.7,1.8-1.5,2.8-2.2
		c0.7-0.6,0.8-0.6,0.2-0.2c-0.8,0.6-0.5,0.5,0.9-0.5c-0.5-0.1-1.7,0.4-2.4,0.3c-3.2-0.1-7.7-3.4-8.3-6.6v-8.5l-0.2,1l4.1-7.1
		l-0.6,0.6l7.1-4.1c2.8-0.2,3.4-0.3,1.6-0.3c1.3-0.1,2.6,0.3,3.7,1.1l5.8,5.8l-0.4-0.7L32.3,156c-2.3,0.1-2.5,0.2-0.7,0.3h2.8
		c8.4,0,16.4-7.4,16.1-16.1s-7-16.1-16.1-16.1h-1.7c-8.4,0-16.4,7.4-16.1,16.1c0.4,8.7,7,16.1,16.1,16.1h1.7v-32.1
		c-3.6,0-7.2-0.4-10.7,0.9c-9.5,3.4-15.4,14.1-9.6,23.6c5,8.2,15.7,11.4,24.9,9.1c11.9-3,16.5-16.8,10.6-27.1
		c-4.6-7.6-13.1-12-22-11.2c-4.9,0.4-9.5,2-13.6,4.7c-1.8,1.2-3.4,2.6-5.1,3.9c-0.6,0.5-1.2,1-1.8,1.4c-2.3,1.8-1.5,1.4,2.6-1.4h8.5
		c0.8,0.2,2.8,2.6,1.9,1.2c-0.9-1-0.8-0.5,0.5,1.3c1.9,2.6,2.1,5.6,0.5,9l-5.8,5.8l1.1-0.6l-8.1,2.2c1.2-0.1,5.8,0.4,2.8-0.1
		c1.9,0.3,3.7,0.6,5.6,0.8c-1.5-0.2-2-0.3-0.2,0c6.4,1.1,12.9,0.9,19.1-0.5c5.3-1.3,10.1-4,14-7.8c0.3-0.3,0.6-0.6,0.9-1
		c0.6-0.7,0.6-0.7-0.2-0.1c-0.1,0-2.3,1-2.4,1c-0.9,0.2-0.9,0.2,0,0.2h1.4c1.4,0,3.2,0.8,0.1-0.1v-30.9c0.9-0.4,6.5-0.6,7.3,0.7
		c-0.3-0.5-2.1-1.2-2.6-1.5c-2.5-1.6-5.1-2.9-7.8-4c-5.4-2.4-11.3-3.2-17.1-2.4c-5.4,0.6-10.7,2.2-15.4,4.9c-0.4,0.2-2.6,2-1,0.9
		c1.1-0.7-0.8-0.2,0.1,0c1.4,0.3-1.2-0.3-1.8-0.2c-1.4,0.2,1.3,0.5,2.6,1.2l7.4,9.6l-0.2-0.8c-2.4-8-11.4-13.9-19.8-11.2
		C-6.8,108.2-12.4,116.7-9.9,125.3z"/>
</g>
<g class="st0">
	<path class="st5" d="M197.2,155.2c5.5,0,11,0.3,16.4-0.8c5.8-1.3,11.2-3.9,15.8-7.5c5.6-4.3,8.7-9.6,11.5-15.9
		c-0.5,1.2,0.3-0.2,0.3-0.5l0.5-1.1l-3.2,3c-0.4,0.2-3.3,0.6-1.5,0.5c1.4-0.1-1.2-0.5-2-0.9l-5.8-5.8l0.5,0.8l-2.2-8.1l-0.1,1.1
		l2.2-8.1c1.5-1.8,1.7-2,0.5-0.8c-1.3,1.4-1.2,1.3,0.5-0.1c-2,1.1-3.8,2.4-5.6,3.9c-4.4,4-7.1,9.7-6.6,15.8c0.2,3.2,1.1,6.4,2.7,9.2
		c1.1,1.4,2.1,2.8,3.3,4.2l-1-1.2c0.8,1.7,0.8,1.8,0.1,0.2c0.4,1.9,0.5,1.9,0.1,0.1v1.3c0.2-4,2.2-7,6-8.7c1.5-0.2,1.6-0.2,0.4-0.2
		c-1.3,0-1.1,0.1,0.6,0.2c2.7,0.3-0.7-0.7-1.8-1.2c-4.6-2.6-9.8-4-15-3.8c-6.4,0.1-12.6,2.4-17.5,6.4c-0.3,0.2-3.6,2.8-1.1,0.8
		c-1.7,0.9-1.9,1.1-0.6,0.5c1.5-0.1,1.4-0.1-0.3-0.1l8.1,2.2l-1.1-0.7l7.4,9.6l-0.2-1.1l-1.6,12.4c-0.7,1.1-1.8,1.9-3,2.2
		c-2.2,1-2.6,1.3-1.2,0.8c0.9,0,3.3-0.4,1.1-0.3c3-0.2,6-0.1,9.1-0.3c6.5-0.4,13.8-0.6,19.5-4.2c4-2.6,9.3-7.2,11.4-11.5
		c4.8-9.8-0.2-24-12.1-25.7c-8.3-1.2-17.6,2-19.7,11.2c-1.7,7.6,2.3,18.5,11.2,19.7l1.2,0.2l-7.1-4.1l0.9,0.8l-4.1-7.1l0.4,1.2
		l1.6-12.4c1.6-3.5,1.2-1.4,0-0.2c-0.5,0.4-0.9,0.8-1.4,1.2c-1.6,1.4-0.4,0.8,3.7-1.8c6.1-3.9-4.5,0.7-2.4,0.5
		c-1.5,0.1-3,0.2-4.6,0.3c-7.9,0.4-15.8,0.1-23.1,3.9c-10.3,5.4-16.1,21.1-6.4,29.9c8.3,7.6,19.6,6.1,28.8,1
		c1.9-1.1,3.7-2.4,5.3-3.8c3.7-3-0.4-1-1.1,0.5c1.7-0.4,2.1-0.5,1-0.2c-0.5,0.2-1.1,0.3-1.7,0.1c-1.1-0.2-1.3-0.1-0.4,0.3
		c0.6,0.3,1.1,0.6,1.7,0.8c8.4,4,17.1,5.2,25.9,1.5c9.2-3.9,14.1-12.5,14.2-22.3c-0.1-4.8-1.2-9.5-3.3-13.8c-0.5-1.1-1-2.2-1.6-3.3
		c-0.8-1.4-1.8-2.7-2.9-3.9c-1.2-1.3-1-1.2,0.5,0.4l2.2,8.1c-6.4,7.8-7.6,10.5-3.7,8.1c1.5-1,2.9-2,4.2-3.2c0.9-0.8,1.7-1.7,2.5-2.6
		c4.7-5.3,7.1-11.3,5.5-18.4c-3-13-20.1-15.8-30.9-12.5c-5.8,1.6-10.7,5.4-13.8,10.5c-0.7,1.4-1.4,2.9-2,4.3
		c-1.6,4.1-2.1,5.1-1.4,3.3c-0.9,1.4-1.1,1.7-0.5,0.9c0.6-0.8,0.4-0.5-0.8,0.7c1.2-0.9,1-0.8-0.6,0.1c-0.8,0.4-1.6,0.8-2.3,1.3
		c1.2-0.5,1.2-0.6,0.1-0.2c-1.2,0.4-1.2,0.3,0.4,0c-1.1,0-2.1,0-3.2,0c-2.2,0-4.5,0-6.7,0c-8.4,0-16.4,7.4-16.1,16.1
		C181.6,147.8,188.2,155.2,197.2,155.2L197.2,155.2z"/>
</g>
<rect x="55.4" y="32.8" class="st8" width="140.5" height="84.4"/>
<rect x="252.2" y="-18.2" class="st9" width="31" height="171"/>
<rect x="-17.2" y="-62.7" class="st9" width="289.2" height="62.5"/>
<rect x="-23.8" y="-13" class="st9" width="23.4" height="171"/>
<rect x="-16.4" y="143.8" class="st9" width="278.4" height="62.5"/>
<circle class="st10" cx="80.3" cy="55" r="6.8"/>
<circle class="st10" cx="79.9" cy="76" r="6.8"/>
<circle class="st10" cx="79.9" cy="96.2" r="6.8"/>
</svg>
