<?xml version="1.0" encoding="utf-8"?>
<!-- Generator: Adobe Illustrator 24.3.0, SVG Export Plug-In . SVG Version: 6.00 Build 0)  -->
<svg version="1.1" id="Layer_1" xmlns="http://www.w3.org/2000/svg" xmlns:xlink="http://www.w3.org/1999/xlink" x="0px" y="0px"
	 viewBox="0 0 612 350" style="enable-background:new 0 0 612 350;" xml:space="preserve">
<style type="text/css">
	.st0{opacity:0.5;}
	.st1{fill:#BFAAD2;}
	.st2{fill:#6753A3;}
	.st3{fill:#7060AA;}
	.st4{fill:#AF7CB6;}
	.st5{fill:#869ACE;}
	.st6{fill:#88658F;}
	.st7{fill:#74CBC8;}
	.st8{fill:#FFFFFF;stroke:#58595B;stroke-width:0.5;stroke-miterlimit:10;}
	.st9{fill:#FFFFFF;}
	.st10{fill:#58595B;}
</style>
<g class="st0">
	<path class="st1" d="M294.2,397.1c8.9,0.3,17.7-1,26.1-3.9c4.9-1.5,9.6-3.5,14.1-6c1.7-1,15.8-11.3,8.3-6.4c0.9-0.6,9-5.3,3.7-2.8
		s3.1-0.5,4.5-0.6c-4.4,0.5,7.9,0.3,7.9,0.4c-3.7,2.2-26.3-23.3-20.2-9.5l-5.5-20.3v1.9l11.8-28.5l-1.9,1.8l17.8-10.4
		c2.1-0.5,7.6,0,2.7-0.4c-9.6-0.9,6.1,1.8,11.1,4.4l14.5,14.5l-0.6-1.3l-14.3,55.2l2-1l-20.4,5.5c1.9-0.3,3.8-0.3,5.7,0
		c3.2,0.4,3.2,0.2,0-0.6c4.8,1.5,5,1.3,1-0.7c4,2,8,3.8,12.2,5.3c4.5,1.4,9.2,2.4,13.9,3c11.8,1.6,14.3,1.9,7.7,1
		c1.9,0.4,3.8,0.7,5.6,1c12.4,2.1,23.8,1.7,36.2,1.7c10.7,0,21.2,0.9,31.7-1.7c39.8-9.7,36.9-66.6,0-77.7c-4.5-1.3-9.2-2.1-13.9-2.4
		c-3.8-0.2-3.8,0.2,0,0.6c-5-0.5-10.5-1.7-15.6-2.5c-10.3-2.2-20.4-5.1-30.2-8.6c-11-3.7-27.1-10.8-42.5-10.8
		c-10-0.3-19.7,2.9-27.7,8.8c-3.4,2.4-6.4,5.3-8.8,8.7c-2.5,2.5-4.3,5.5-5.2,8.9c-2.8,6.7-2.7,6.4,0.2-1c-11,18-4.5,45.1,14.5,55.2
		c19.3,10.8,43.6,4.4,55.2-14.5c2.4-4.3,4.3-8.8,5.9-13.4l-10.4,17.6l1.6-1.5l-28.5,11.8c0.4,0,6.5-0.2,3.1-0.4
		c5,1.4,6.2,1.7,3.8,0.8s-1.3-0.4,2.8,1.5c9.5,4.5,19.5,6.9,29.4,10.3c7.6,2.5,15.3,4.2,23.2,5.3c3.3,0.6,6.6,1.2,9.9,1.8
		c4.2,0.8,8.4,1.4,12.6,1.8c4.7,0.3,4.5,0.2-0.8-0.4v-77.7c11.9-2.9,2.2-1.2-1.6-1.2c-5.6,0-11.1,0-16.7,0c-1.6,0-17.4,0.2-8.6,0.8
		c-2.5-0.2-26-4.5-15.4-2.5c-2.3-0.4-4.5-0.9-6.8-1.3c4.7,2.1,5.1,2.3,1.2,0.6c-6.9-3.1-14.1-5.4-21.5-6.9
		c-16.1-2.7-30.5-2.8-45.5,5c-20.4,10.4-23.6,36.5-14.5,55.2c11,22.4,38.9,25,60.5,20.6c36.2-7.6,41.7-48.9,21.9-74.5
		c-17.2-22.3-48.1-22-73.3-16.7c-9.3,2-18.1,5.8-25.9,11.2c-3.2,2.1-17,10.7-8.3,6.4c4.7-1.9,4.9-2.1,0.5-0.5c4.9-0.5,4.9-0.7,0-0.7
		c-21.1-0.5-41.3,18.9-40.3,40.3C255,379,271.6,396.6,294.2,397.1L294.2,397.1z"/>
</g>
<g class="st0">
	<path class="st2" d="M27.8-16.1l0.6-1.4L9.9,6.6C-5.4,10-9.8,11.2-3.3,10.4C12.4,8.8,11,8.3-7.4,8.8L-25.2-1.5l1.2,1.4l-11.8-28.5
		c1.3-5.6,1.3-5.8,0-0.7l-0.9,3.7c-1,3.7-2.2,7.3-3.1,11c-2.7,9.8-4.2,19.8-4.6,29.9C-44.9,48.7-7,69.8,21.2,52.5
		C35,43.9,43.9,29.2,52.9,16.1C57.5,9.4,62,2.7,66.6-4.1c1.2-1.8,2.4-3.5,3.6-5.2c-1.6,2-1.5,2,0.3,0c1-1.1,2-2.2,3-3.2
		c3.2-3.2,2.7-2.8-1.4,1.1L51.7-6.1h2.2L25.4-17.8l-8.6-20.4l5.5-20.3c6.1-10.5-3.3,0.8,2.8-4L9.9-50.8c-5.7,4.4-11.4,8.9-17,13.6
		C-20.2-26.1-31.7-13.3-41.4,0.8c-9.4,14.1-15.9,30-19,46.6c-2.8,14.5-4.1,28.5,3.1,42c8,14.9,24.3,23.1,40.8,23.1
		c23.9,0,43-16.2,59.4-31.8c13-12.6,25.3-26,36.8-40c11.6-13.9,22.9-28.1,34.6-42c5.3-6.2,10.6-12.6,16.1-18.7
		c1.4-1.5,9.2-9,7.7-7.8c-1.5,1.2-1.2,0.9,0.8-0.4c6.1-3.8,2.3-3.2-11.4,1.9L99-38l1.5,1.4L90.1-54.4c4.2-18,4.2-23.1,0.2-15.1
		c2.5-2.6,2.1-2.1-1.2,1.5c-3.2,3.6-6.7,7-10.1,10.4c-7.9,8.1-15.9,16-24.1,23.7C38.7-18.6,22.2-3.6,5.3,11.1
		c-29.8,26.4-105.6,75.4-70.2,121.4c19.5,25.2,55.7,19.2,79.6,4.2c18.8-11.8,34.6-28,48.8-45c13.4-16.1,26-32.8,40.4-47.9
		c7.3-7.8,15.1-15.1,23.3-22c-2.9,2-2.4,1.7,1.5-1.1c2.2-1.5,4.6-2.8,7-3.9c-3.2,1.5-2.5,1.4,2.1-0.2c-3.2,0.5-6.4,0.3-9.5-0.7
		L104.1-2.6l1,1.6L101-32.1l-0.5,1.8l10.4-17.8c-5.3,6.5,6-3.7,0.9,0.2c-2.8,2.1-5.6,4.2-8.6,6.1c-0.7,0.4-8.3,4.8-4,2.9
		c-4,1.6-8.1,2.6-12.3,3l49.7,28.2l-1.1-3.8l-4.2,31.1c2.2-4.6,1.5-5.9,6.7-10.9c2.1-1.9,4.3-3.7,6.7-5.2l3.3-2.5
		c-1.7,2-1.4,2.3,0.8,0.7c1.7-0.8,3.4-1.7,5-2.7c-2.5,1,6.7-3.4,2.5-1.2c-2-0.1-1.8-0.2,0.3,0c2.1,0.2,2.3,0-0.4-0.2
		c-0.5-0.4-15.1-8.6-9.3-4.1l-10.3-18l0.6,1.9V-44c-2.2,5.9-0.3,3.5,5.6-7.3c-1.7,2.4-3.6,4.7-5.6,6.9c-2.2,2.5-8.1,8-9,8.8
		c-5.3,4.3-15.8,9.7-23.7,13.6h40.7l-2.1-1L157.7,32c-4.1,5.8,2.5-2.2,3.8-3.3c-5.4,4.5,4.7-2.5,6.2-3.2c3.5-1.8-3.8,0.9,2.9-1.1
		c1.4-0.6,2.9-1.1,4.4-1.6c7.3-1.8,4.1-2-9.7-0.7l-17.8-10.4l-3-4.3L139-12.8c-0.3-2.3,5.5-13.3,1.2-7c3.5-5,10.1-8.4,1.5-3.3
		c-1.7,1.1-3.4,2-5.2,2.9c3-1.1,3.2-1.1,0.6,0c-16.7,7.9-11.7,0.8-0.4,2.9l28.2,28l-2.1-6.4v21.4c-2.5,6-13.1,13.4,2.3,1.1
		c6.2-4.9-2.8,0.9,4.7-3.4c3.5-2,7-4,10.5-6c4.4-2,4.9-2.3,1.5-0.9c1.9-0.8,3.8-1.5,5.7-2.1c4.6-1.6,9.2-3.1,13.9-4.5
		c3.9-1.1,14.1-1,2.5-1.8c9.1,0.7,23.7-2.8,30.9-8.2c13.4-10.1,21.6-22.7,19.3-40.2c-1.9-14.3-13.4-31.1-28.9-33.5
		c-29.8-4.6-58.9,1.8-86.6,13.1c-24.3,9.8-49.2,20-70.3,36C55.7-15.1,43.1-3.1,38.7,12.8C31.9,37.4,48,61.2,72,66.8
		c14.2,3.3,29.6,2.1,44.1,2.5c14,0.3,28,0,41.9,0.6L137.7-5.3l-2.5,1.4l20.3-5.5c-4.4,0.4-10.3,0-14.5,1.2c-3.2-0.2-3.1,0.1,0.3,0.8
		c-2.2-0.6-4.4-1.2-6.6-1.8l17.8,10.4l3.3,4.3l-6.3,48.9c-4,3.9,3.7-2.5,4.8-3.3c18.1-11,26.5-36.6,14.5-55.2
		c-11.6-18.1-35.9-26.2-55.2-14.5C106-14.1,98.9-8.8,92.5-2.7C79,10.6,78.3,30.1,86.2,46.2c14.9,30.2,65.5,33.1,92.2,18.2
		c36.1-20.2,18.4-73.5-20.4-75.1c-12.5-0.5-25-0.2-37.5-0.5c-5.9-0.2-11.8-0.4-17.6-0.4c-3-0.1-5.9-0.1-8.9,0
		c-7.5-0.6-6.2,0.4,4.1,2.9L118,26v-2.5l-5.5,20.4c2.1-3.7,1.7-3.6-1,0.2c3.5-3.2,3.8-3.7,0.8-1.5c4.4-3.5,9.2-6.6,14.1-9.2
		c9.4-5.3,19.1-10,29-14.2c8.4-3.8,17-7.1,25.8-9.8c5.7-1.7,11.5-3.1,17.3-4.1c5-0.8,5.8-0.9,2.5-0.4c5,0.3,6,0,2.5-0.8l-9.4-73.7
		c2.1-1.5,12.6-3.2,10.8-2.9c-2.5,0.5-5.4,0.7-7.6,1c-7.3,1.1-14.5,2.8-21.6,5c-14.4,4.3-28.3,10.1-41.5,17.3c-7,4.1-13.7,8.8-20,14
		c-2,1.6-4.3,3.8-0.9,1c-4.2,3-8.2,6.4-11.9,10.1C87-8,80.2,11.1,87.1,32.2c4.2,12.7,14.1,25.3,28.2,28.1
		c15.8,3.4,32.3,1.8,47.2-4.6c-3.2,1.6-2.6,1.4,1.7-0.5c4.5-1.7,8.9-3.6,13.2-5.8c3.5-1.8,6.8-3.9,10.1-6.1
		c22.5-15.4,40.3-44,28.8-71.6c-12.2-28.8-42.8-34.2-69.6-24C122-43.1,103.4-30.4,88-8.7c-12.2,17.1-3.6,45.8,14.5,55.2
		s34.1,6,51.5-3.1c13.1-7,25.1-15.8,35.8-26.1c10.4-10.1,20.4-21.9,24.4-35.9c5-18.1,0.5-36.8-14.5-48.7c-27.7-22-60-17.5-89.6-1.7
		C81.3-53.8,48.4-21.9,58.7,13.7c6.6,22.7,27.7,31.4,49.6,28.2c30.8-4.5,82.7-36.4,70.5-74c-15.5-47.9-72-31.7-101.5-8.9
		C53.2-22.4,33.7,0.7,14.7,24.5C5.7,36.1-4,47.1-14.4,57.4c-2.1,2-4.2,3.9-6.3,5.8c-9.3,8.3,2.4-1.1-3.5,2.8
		c-1.7,1.2-3.6,2.3-5.4,3.3l2-0.6l-3.3,1.1c6.2-1.1,12.7,0.1,18,3.5L1.6,87.8l-1.1-2l4.2,31.1c-6.7,10.7-7.6,12.9-2.5,6.6
		c1.9-2.1,3.8-4.2,5.8-6.2c2.9-3.1,6-6,9.1-9c7.6-7.2,15.4-13.9,23.3-20.7c17.3-15.1,34.4-30.1,51.4-45.4
		c15.8-14.4,31.3-29,46.2-44.3c18.7-19.2,38.3-43.3,30.5-72.2c-9.3-34.5-47.4-40-73.3-21.2C77.4-82.7,64-66.3,50.1-49.6
		C36.6-33.3,23.5-16.7,9.5-0.8c-7,7.9-14.3,15.6-21.9,23.1c-3.6,3.4-7.1,7-11,10.1c2.7-1.9,2-1.5-1.9,1.2c5-1.3,10.2-1.5,15.3-0.8
		l24.1,18.5l-1.7-2.4l5.5,20.4c0-7-1.1,2.9,0-2.2c0.6-3.1,1.3-6.3,2.2-9.3c0.7-2.3,1.5-4.6,2.3-6.9c-2.7,7.2,0.4-0.2,1.2-1.7
		c1.5-2.5,3.1-5,4.7-7.6c3.9-6.2-1.7,1.7,1.3-1.7c3.6-4,7.2-7.9,11.1-11.6c4.4-4.2,8.9-8.1,13.6-11.9c2.3-1.9,4.7-3.8,7.1-5.7
		c1.2-0.9,7.8-6,1.8-1.4C78.2-2.4,94-12.2,96.8-32.8c2.9-21.3-9.4-47.1-32.1-52.3c-20.2-4.6-38,3.8-51.2,18.7
		C3-54.8-5.4-41.4-14.2-28.5c-3.7,5.4-7.6,10.4-11.1,15.9c-2.5,3.9,2.3-2.9,2.7-3.3c-3.5,4.4-6.2,3.3,1.5-0.6l20.3-5.5h-1.5
		l20.4,5.6l-1.3-0.8L35.3,7c-0.4,13.6-0.1,16.2,0.9,7.8c0.4-2.7,0.9-5.4,1.6-8c1.3-4.9,2.9-9.8,4.1-14.6
		c4.3-18.3,4.4-36.5-10.1-50.7c-8.1-7.8-19-12.2-30.2-12.2c-4.4,0.3-8.7,0.8-13,1.6c7.4-0.9,9-1.1,4.7-0.6
		c-22.1,3-34.4,11.2-43.3,32.3c-8.2,19.5,8.8,45.2,28.2,49.7C1.9,17.4,19,4.8,27.8-16.1z"/>
</g>
<g class="st0">
	<path class="st3" d="M201.3,113.5c21-20.6,40-43.3,56.5-67.6c8.2-11.7,15.8-23.8,23.4-36C285.1,3.7,289-2.6,293-8.7
		c1.7-2.5,3.4-5,5-7.8c2.5-3.8,9.3-10.5,1-3.1l-67.4-17.8c-1.4-8.4-0.7,7.8-0.7,9.2c0,5.9,0.6,11.9,1,17.8s1.2,11.1,1.6,16.7
		c0.3,2.6,0.4,5.3,0.3,7.9c1.2-5.5,1.1-6.5,0-2.9l18.5-24.1l-1.5,1l60.7,34.8c0.5,3.9-7.6,13.5-7.6,13.6c-1.8,1.1-1.8,1.2,0,0
		c1.4-0.9,2.9-1.6,4.4-2.1L288,40.2l3,0.3l-28.5-11.8l1.3,1.7L253.4-8.9c2.3-8.6,7-14.4,14-17.4c2.1-0.9,2.2-1,0.2-0.3
		c-3.4,1-6.8,2.1-10.1,3.5c-7.6,2.5-15.1,4.2-22.7,5.9c-7,1.9-14,3.4-21.2,4.6c-7.2,0.3-14.4,1-21.5,2.1
		c-16.6,3.4-30.4,22.1-29.6,38.9c0.8,18.9,12.2,32.5,29.6,38.9c-3.3-1.6-2.8-1.4,1.4,0.9c-4.3-2.7-7.3-7-8.2-12V34.7
		c14.5-14.6,17.8-19.6,9.7-14.9c3.2-1.2,2.5-1-2.2,0.7s-9.6,2.7-14.5,3.8c-4.9,1.1-9.7,1.9-14.6,2.5c4.2-0.6,3.8-0.6-1.1,0
		c-4.9,0.6-9.7,1.2-14.5,2.1c-24.4,4.3-38.3,39.1-24.2,59.2c1.2,1.5,2.3,3.1,3.3,4.8l-5.5-20.2v2.8l5.6-20.4l-1.2,1.7l14.5-14.5
		c-5.2,3.5,3-0.9,3-1c0,0.4-9.6,2.5-4.6,1.5c3.4-0.7-4.1,0.2-5,0.3c-3.5,0-6.9,0-10.3,0c-45-1.6-55.1,68.8-10.6,79.1l3,0.7
		l-17.8-10.4l2.2,2.1L88.6,86l0.2,1.5L100.6,59c9.3-11.7,31.3-9.7,16-9.3c-4.9,0-9.7,0.3-14.6,0.3c-3.3,0-6.5-0.1-9.8-0.4
		c-6-0.6-6.5-0.5-1.5,0.5c-9.3-0.5-15.1-2.1-24.4-0.3c-37.2,7.6-47.7,60.5-18.6,82.9c18.4,14.2,46.4,13.2,68.7,13.6
		c10.1,0.2,20.3,0.5,30.5,0.7c4.8,0.1,9.6,0,14.4,0.3c2.7,0,5.5,0.2,8.2,0.4c-2.7,0-5.4-0.7-7.8-2l-14.5-14.5l1.2,1.7V92.4l-1.4,2.1
		L161.5,80c8.9-5.3-0.3-0.2-4.2,0.7c-2.1,0.4-4.3,0.8-6.4,1.2c3.6-0.4,2.9-0.4-2.1,0.2c-5.5,0.4-11.2,0.4-16.7,1
		c-5-0.2-5.3,0-1.3,0.5c13.4,13.8,18.1,17.3,14,10.4c-10.8-21-34.3-21.4-54.1-18.2c8.2-1.3-8.7,1.1-10.3,1.3
		c-7.3,0.7-14.5,1.8-21.7,3.3c-28,7.1-36.5,29.7-49.4,52.2c-2.7,3.9-2.9,4.3-0.7,1.3c-1.8,2-3.6,3.9-5.5,5.8s-3.8,3.7-5.8,5.3
		c-3.6,3.1-4,3.4-1.2,0.8c-2.2,1.5-4.6,2.9-7,4.1c3.5-1.4,3-1.2-1.6,0.6l-9,3.4c-6.3,1.7-6.1,1.9,0.5,0.7l34.8,60.7
		c-2.8,2.3-3.2,2.5-1,0.5c1.7-1.6,1.9-1.8,0.4-0.7c-2.8,2.5,5-3.3,5.8-3.8c6.2-4,12.6-7.6,19.2-11.1c11.7-6.2,26.7-13,36.9-17.3
		c25.3-10.8,57.6-20.7,84.1-33.8l-48.9-63.3c-20.2,15.7-40.5,31.4-60.1,47.9c-18.9,16-34.7,31.9-53.7,42.8l60.7,35l0.2-1.8
		l-5.5,20.4c-8.6,13.3-12.8,11.3-4.8,7.2l7.6-3.9c8-4.2,16.1-8.1,24.3-11.8c16.6-7.6,33.2-14.7,49.6-22.7
		c34.2-16.6,65.5-35.9,91.1-64.4c4.9-5.4,10.1-10.6,15.5-15.5c2.9-2.3,13.4-9.1,19-13c16.4-10.8,31.8-22.9,46.1-36.3
		c12.9-12.2,24.9-25.2,36-39.1c6.4-8,11-17.3,13.5-27.2c0.7-4,1.2-8,1.7-12.1c0.5-3.6,0.4-3.7,0,0c-0.4,3.7-0.5,3.6,0.2,0.2
		c-6.9,15.8-17.8,22.5-32.9,20.2L301.3,1.2l1.6,1.9l-11.8-28.6v2.7l5.5-20.4c-7,16-13.6,32.8-22.3,47.9c-1.2,2-6.5,9.9-5,8.3
		c2.8-3.3-6.9,6.5-3.2,3.4c3.1-2.7-1.5,0.9-1.9,1.2c-1.6,0.9-3.4,1.8-5,2.8c-4.8,3,1.3-0.6,1.2-0.4l-3.7,1.1l35,28.4
		c1.2-5.3-0.3-13.7-0.9-19c-0.7-6.6-1.7-13.3-2.7-19.8c0-0.2-1.2-7.7-0.5-3.1c0.6,3.8-1.2-9.5-1.5-11.2
		c-4.8-26.7-26.7-48.3-54.2-49.6c-13.8-0.3-27.1,5.3-36.5,15.4c-3.7,4.2-7,8.6-9.9,13.4c-0.2,0.2-3.7,5.2-1.2,2.1
		c2.5-3.1-2.8,2.5-3.3,3c-3.2,3.2-6.6,6.1-9.8,9.2c0,0-4.6,4-2,2s-3.4,2.1-3.2,1.9c-5,3.5-9.9,7.3-14.5,11.3c-0.5,0.4-5,3.7-1.3,1.2
		s-2.7,1.5-3.4,2c-6.5,4.7-13.3,9-20.3,12.8c-1.9,0.9-3.8,1.9-5.7,2.7c0.9-0.4,4.3-1.5-0.2,0s-9.7,2.7-14.4,4.3
		c-18.2,6.2-39.2,13-54.5,24.8c-9.8,7.4-17.8,16.9-23.4,27.7c-2.9,5.9-5.3,12.2-7.7,18.3c0,0.3-2.5,6.1-0.8,2.2
		c1.7-3.9-1.7,3.6-2,4.2c-4.9,10.2-8.4,21-10.5,32.2c-3.2,19.4,1.1,33.4,14,47.9c14.1,15.8,42.8,15.4,57,0c15.5-16.9,15-40.1,0-57
		l6.5,10.7v21.4c0.8-5,2-9.8,3.2-14.8c1.6-4.5,1.7-5,0.3-1.6c1.1-2.4,2.2-4.8,3.3-7.2c-1.2,2.8,9.7-22.8,5.6-14.1
		c1-2.3,2.2-4.5,3.5-6.6c-1.9,2.9-1.4,2.5,1.6-1.3c-3.9,3-3.9,3.4,0,1.1c2.5-1.3,5-2.5,7.6-3.7c-5,2.2,8.5-3.2,9.9-3.8
		c11-4.2,22.3-7.1,33.1-11.7c10.6-4.3,20.8-9.7,30.2-16.2c4-2.8,8.1-5.4,12.1-8.2s7.3-5.5,10.8-8.5c3.5-2.9,3.4-3,0.7-1
		c10.4-7.5,20.4-15.6,29.9-24.1c5.3-5,10-10.6,14.2-16.6c1.6-2,3-4.1,4.3-6.3c3.6-5.6,1.7-3.8-5.7,5.6L229,27.3
		c-11.8,0-15.5-7.6-21.9-15.4l0.9,3.8c-0.6-4.7-0.5-3.9,0.4,2.4c0.5,3.8,1.1,7.6,1.6,11.5c1.1,7.6-0.3-4.6,0.4,2.9
		c1.1,12.8,0,25.5,5,37.6c15.8,37.5,59.1,35.6,89.3,17c24.1-14.8,38.6-38.2,49.8-63.4C360.2,11,369-3.5,370.9-17.4
		c3.6-24.2-13.1-46.7-37.3-50.3c-0.3-0.1-0.7-0.1-1-0.1c-16.6-2.2-34.4,2.8-46,15.5c-5.8,6.3-10.1,13.9-12.4,22.2
		c-0.5,1.7-0.6,3.5-0.9,5.2c1-5.6-3.5,25.8-1.1,8.1c-0.7,5.3-0.5-0.8,0.2-0.4c-0.3-0.2,6.6-7.2-0.7,0.5c-3.8,3.9-7.4,7.9-11,11.9
		c-8.9,9.9-18.3,19.2-28.4,27.8c-3,2.5-6.1,4.8-9.3,7c-5.4,3.8-10.9,7.6-16.3,11.2c-12.4,8-24.1,17-35,26.9
		c-8.4,8.1-15.6,17.3-24.2,25.3c-2,1.8-4,3.6-6.1,5.4c-0.6,0.5-6,4.5-1.5,1.2c-6,4.3-12.3,8.2-18.7,11.8
		c-25.2,14.5-51.9,26-78.4,37.8c-12.2,5.5-24.2,11.4-36,17.6c-18.4,9.6-27.3,23.4-29.9,43.9c-3.9,31.5,36.8,48.7,60.7,34.8
		c24.3-14.2,45-34.2,66.3-52.4c20.7-17.6,42.2-34.4,63.7-51.1c15.8-12.3,14.1-38.7,3.1-52.9c-12.8-16.5-33.7-19.4-52-10.4
		c-11.6,5.7,6.2-1.8-5.9,2.5l-10.5,3.8c-7.9,3-15.8,6-23.7,9.1c-16.8,6.7-33.4,13.7-49.8,20.9c-14.8,6.3-29.2,13.5-43.1,21.5
		c-15.4,9-34.1,20.3-41.4,37.3c-5.9,13.7-8,27.1,0,40.7c7.3,12.3,20.5,19.9,34.8,20c17.3,0.4,37.6-8.6,52.5-16.6
		c14-7.8,26.4-18.3,36.5-30.8c8.2-10.1,20.2-25,23.3-38.1c3.4-5,1.4-4-6,3.2c-9.2,5.5-10.2,7.1-3.1,4.8l4.4-0.8
		c-2.5,0.4-2.5,0.4,0.4,0c3.7-0.4,7.4-0.9,11-1.3l10.7-1.4c7.6-1.2,4.4-1.5-9.5-0.9l-24.1-18.5c14.8,26.8,43.8,30.5,71.4,28.2
		c26.9-2.3,55.4-5.3,71.4-29.7c7.4-11.3,7.6-29.5,0-40.7c-18-26.5-46.7-25.2-75.4-26c-11.1-0.3-22.2-0.5-33.3-0.8
		c-6.2-0.2-12.4-0.4-18.6-1l-7.2-0.8c3.2,0,6.3,0.8,9,2.5l14.5,14.5l-1.6-2.3l5.5,20.3l-7.8,19l-17.9,10.2c-17.1-0.6-18-0.1-2.8,1.5
		c3.2,0.2,6.5,0.4,9.8,0.6c6.5,0.3,13,0.5,19.5,0.4c8.4-0.3,17.6,0,25.6-2.5c42.6-12.4,40.9-73.8-3-83.9l-10.7,79.4
		c17.9,0.6,38.4-0.8,54.4-9.8c24-13.6,31.9-43.4,15.6-66.4l-24.1,59.2c-8,1.4,5.5-0.7,6.3-0.8c3.8-0.5,7.6-1,11.4-1.6
		c6.3-1,12.6-2.1,18.8-3.7c15.1-3.8,32.4-9.7,43.5-21c15.1-15.3,19.9-39.4,8.1-58.2c-10.4-16.6-26.3-25.1-44.1-31.7v77.7
		c-11.5,2.4,7.1,0,9-0.3c6.7-0.9,13.2-1.9,19.8-3.3c9.2-1.9,18.5-4,27.7-6.4c21.2-5.6,45.6-12.9,57-33.4c9.3-16.8,6.4-36.3-6-50.7
		c-13.6-15.7-35.8-16.6-53.4-8.2c-21.1,10.1-39.7,33.5-36.9,58c1.7,14.6,6.6,27,20,34.8c11.9,7,28.9,7.8,40.7,0
		c21.6-14.3,24.2-35.6,22-59.3c-1.8-19.2-1-38.4-4-57.4c-5-32.2-47.1-35.8-67.4-17.8c-9.9,8.8-16.8,24.2-23.9,35.4
		c-8.2,13-16.3,26.2-24.9,39c-14,21.4-30.4,41.1-49,58.7c-15.2,14.6-15.8,42.5,0,57C160.6,128.6,185,129.1,201.3,113.5z"/>
</g>
<g class="st0">
	<path class="st4" d="M215.6,124.8c16.8,0,34.5,1.4,50.7-4.1c17-5.5,31.9-15.9,43-29.9c9.3-12,16.2-25.7,24.6-38.3
		c1.9-2.5,3.7-5.2,5.3-8c2.5-5.5-1.6,4.7-3,2.4c0,0,7.1-3.8,7.6-4c9.5-5-1.2,0.6-4.2,0.4l-20.4-5.5l2.1,1.6
		c13.5,10.3,37.8,5.7,48.9-6.3c11.1-12,17.2-34.3,6.3-48.8c-9-12-15.1-23.3-29.7-29.4c-16.8-7.1-34.6-1.5-49.1,8.1
		c-19.6,13-34.4,33-46.1,53.1c-3.9,6.7-9.1,12.1-17,20c-1,1-5.8,3.9-1.3,1.3c1.5-0.9,3.9-0.4,0-0.2c-5.3,0.3-12.6,2.8-17.6,4.1
		c-25,6.4-43.6,27.3-56.4,48.7c-8.6,14.2-13.1,31.1-6.5,46.9c7.8,18.5,23.3,26.6,42.3,29.2c28.6,3.9,54.9-11.4,77.2-27.7
		c20.2-14.7,38.3-32.1,57.6-48c0.6-0.5,6-4.6,1.6-1.3c1.7-1.2,3.3-2.5,5-3.6c4.6-3.2,9.3-6.2,14.1-9.1c11-6.5,21.6-13.8,31.5-21.9
		c10.4-8.6,21.3-18.3,27.9-30.2c11.3-20.5,5.9-47.9-15.5-59.3c-28-15.1-82.2-4.2-87.5,32.2c-3.1,20.8,5,44.4,28.1,49.6
		c19.1,4.3,46.3-5.8,49.6-28.2l-7.6,12l-17.8,10.4c7-2.5-6.9,0,3.6-1c3.3-0.4,6.7-0.5,10.1-0.5l-20.4-5.5l2.3,1.2l-14.5-14.5
		l0.8,1.7v-40.4c-2.2,4.7-3.5,4.5,0.3,0.7c-3.2,3.1-6.4,6.2-9.7,9.2c-4.9,4.6-10.4,8.6-16.4,11.8c-16.2,9.7-31.6,20.7-46.1,32.8
		c-12.1,10.1-27.9,25.2-37.8,32.5c-6.8,4.9-13.8,9.5-21.1,13.7c-2,1.2-3.9,2.3-5.9,3.4h0.3c-2.6,0.6-2.6,0.8,0.2,0.5
		C207,87.1,209,88,211,89l14.5,14.5l-1.2-2.4l5.5,20.4c-1.9,19.5-4,13.7,1.2,5.8c6-9.4-3.6,3.1,3.9-5c2.3-2.6,4.8-5.1,7.4-7.4
		c0.5,0.6-17.6,7.1-1.4,3.6c19.6-3.7,37.7-13,52.1-26.7c13.9-13.2,23.2-28.5,33.8-44.3c2.1-3.1,4.3-6.1,6.6-9.1
		c-4,5.4,2.2-2.5,3.3-3.6c1.1-1.1,8-6.6,4.4-4.3c-3.1,2,6.7-3.3,7.9-3.9L328.5,32l2.7-0.3l-20.3-5.5c-7.6-8.3-9.8-10.1-7-5.7
		c0.8,1.5,1.8,2.9,2.9,4.2L362-30.4c-18.8-14.3-42.8-5-61,4.6c-16.5,8.6-26.7,22.2-36.7,37.4c-4.3,6.7-8.7,13.2-12.6,20.2
		c-1.8,3.1-3.3,6.3-5.3,9.2c-1.5,2.3-1.4,2.2,0.2-0.2l-2.8,2.7c7.6-2.5-7.3,2.7,1.2-0.8c-1.2,0.5-10.4,1.9-5.8,1.7
		c4.6-0.3-8.9-0.4-8.5-0.4h-15c-21.1,0-41.3,18.6-40.3,40.3c1,21.7,17.6,40.3,40.3,40.3L215.6,124.8z"/>
</g>
<g class="st0">
	<path class="st4" d="M554.3-5.1v-4.4l-5.5,20.3c-3.5,6.1-9.5,10.4-16.4,11.7c-2.9,0.5-2.3,0.6,2.1,0.4c4.1,0.3,8.2,0,12.3,0.2
		c9,0.2,18,0.6,27.1,0.7c7,0,14.1,0,21.1,0c2,0,4,0,5.9,0c3,0,2.6,0-1,0c-5.4-2.2-1.9-0.9,1,1.3L582.3,1c-2-7.2,2.3-14.2,7.3-18.8
		c2-2.7,4.8-4.8,8.1-5.8l-3.6,0.8c-0.8,0-10.1,1-5.9,0.9c4.2-0.1-6.2-0.3-7.1-0.4c-14.6-0.7-28.8-3.3-43.3-2.8
		c-11.3,0.4-22.4,3-32.8,7.6l-7.9,3.3c-2.2,1.1-4.3,2.4-6.5,3.5S481-6.9,476.1-5c-4.2,1.6-8.2,3.6-12.3,5.2l4.8-2.1
		c-4.6,1.4-3.3,1.3,4-0.3L493,3.4l-1.4-0.8l14.5,14.6l-0.9-1.7l4.1,31l0.4-1.1l-18.5,24.1c-14.5,7.6-20,4.1-7.6,4.6
		c7.1,0.3,0-0.5,7.6,0.8c12.9,2.6,26,4,39.2,4.3c8.8,0,17.6,0.5,26.5,0c5,0.3,5.4,0,1.1-0.4c-3.3-1.4-2.8-1,1.6,1.3
		c5.4,3,11,5.5,16.8,7.6c26.3,9.2,56,3.7,70.8-21.8c7.3-13.7,9.4-29.6,5.8-44.8C647.3,1,629.6-8.5,610.2-10.8
		c-17.6-2.2-34.1,14.1-38.9,29.6c-1.6,5.7-2.4,11.5-2.4,17.4c17.2-20,20.7-27.1,10.7-21.3c1-0.9,2.5-1,3.7-0.4
		c-1.8,0.4-16.8-0.7-9.3,0.3c-5.1-0.8-10.2-1.9-15.3-3.3c-17.6-4-33.1-2.8-49.2,5.4c-4.6,2.4-9.2,5-13.7,7.7c-1.9,1.5-4,2.9-6.2,3.9
		c3.9-1.5,4.5-1.7,1.6-0.6c-4.3,1.6-8.8,3-13.3,4c9.2-1.9-10.4,1-10,0.3c10.7,3.7,13,4,7,0.9c-2-1.4-4.1-2.5-6.4-3.5
		c-8.7-4.3-18.2-6.8-28-7.2c-27.1-1.8-67.1,10.4-73.5,40.8c-5.6,26.4,11.7,49.7,38.9,51h1.7c21.1,1.1,41.3-19.3,40.3-40.3
		c-0.5-22.1-18.2-39.9-40.3-40.3h-1.7l38.9,51l0.5-2.1l-10.4,17.8c-6.1,4.6-6.3,5.3-0.7,2.1c-1.7,0.7-3.5,1-5.3,0.7
		c2.5-0.2,5-0.3,7.7-0.3c-1.9-0.2-3.8-0.8-5.4-1.9c-0.6,0.5,21.3,9.8,18.5,9c7.2,2.1,14.8,3.1,22.3,3c26.6-0.4,48.5-9.8,71.2-22.5
		c2.4-1.1,4.7-2.4,6.9-3.9c-3.9,2.5-8.6,3.4-13.1,2.5c2,2.5,12.3,2.8,15.3,3.3c15.3,2.5,30.5,4.3,45.8,0.6
		c13.2-3.2,27.3-9.8,36.7-19.7c6.1-6.5,10.4-14.4,12.6-23c0.7-4.7,1.3-9.4,1.9-14.1c0.7-5.9,0.6-4.6-0.5,4l-38.9,29.7l1.7,0.2
		l-28.5-11.8l2,2.2l-11.8-28.5c0.2,3.6,0.3,4.1,0.5,1.4c0.7-6.8,4.6-12.9,10.5-16.4l20.4-5.5c-1.7,0.2-6.6,1.9,0,0.8
		c0,0-6.6-1.7-2.5-0.3c4.1,1.4-2-1.1-2.5-1.4c-2.5-1.4-4.9-2.8-7.4-4c-13.1-6.1-25.9-7.9-40.3-7.9c-10.6,0-21.7,0.9-32.3,0
		c3.6,0.3-6.2-1.2-7.7-1.4c-8.1-1.3-16.3-2.5-24.4-3.3c-27.4-2.5-58,9.6-58,42c0,18.1,13.8,37.2,31.9,41.3c14.7,3.3,27-0.5,40.3-6.2
		c5.9-2.5-3.6,0.3-4,1.6c2.1-1.1,4.4-1.9,6.7-2.5c7-2.6,13.9-5.5,20.7-8.5c3.3-1.5,6.4-3.1,9.5-4.8c-8.5,4.8,5.9-2.5,6.7-2.8
		c-1.4,0.4-2.4,1.6-4,1.6c22.5-0.6,44,4.3,66.5,1.1c26.4-3.6,47.3-15.2,56-41.6c4.3-13.1,3.7-33.1-4-45
		C648.5-41.9,635-49.8,621.4-54c-12.4-3.9-26-2.9-38.9-2.9c-12.8,0-25.4-0.4-38.1-0.7c-13.7-0.3-27.2-0.2-40.1,5.2
		c-19.7,8.3-30.2,26.1-30.7,47.2c-0.5,21.2,18.8,41.3,40.3,40.3C536.1,34.2,553.9,17.6,554.3-5.1z"/>
</g>
<g class="st0">
	<path class="st5" d="M617.8,50c7.6,0,15.6-0.7,23.3,0l-20.4-5.5l2.3,1L608.6,31c11.3-29.9,11.9-40,2-30.5c1.2-1.3,0.8-1.2-1.3,0.5
		c-4.2,2.8-8.2,5.6-12.2,8.7c-9.8,7.6-16.7,18.3-19.6,30.4c-4.5,18.7,3.8,36.5,19.7,46.8c-0.4-0.2,10.1,5.2,13.4,5.2
		c6.6,1.9,5.1,0.3-4.5-4.7c-1.8-2-3.2-4.5-3.9-7.1V58.7l-0.5,2.4L612,43.3c6.2-6.8,0.7,0.3,0.3-0.8c-2.1,1.1-2.2,1.2-0.2,0.2
		c2-0.9,1.9-1-0.4-0.3c-1.7,0.3-8.2,0.9-3.5,0.7c-3.2,0.2-6.4,0-9.6,0c-21.8-0.2-37.8,8.5-49.1,27.4L564,56
		c-1.7,1.3-3.5,2.4-5.4,3.3c3.9-2,2.7-1-0.8-0.4c-6.5,1.2-13,2.6-19.5,4.3c-2.5,0.6-4.8,1.3-7.2,1.9c-0.7,0.2-6.8,1.4-3.7,1
		s-4.4,0-5,0c-2.1,0-4.3-0.3-6.4-0.2c-23.6,0.7-45.7,17.6-45.7,42.8c0,18.5,12.6,36.2,28.5,45c28.2,15.5,62.2,12.2,90.7,0
		c10.4-4.6,20.6-9.8,30.4-15.6c3-1.8,6.1-3.6,9.3-5c0.7-0.3,7.1-3.2,4.7-2.3c-2.3,0.9,4.8-1.3,5.3-1.6c3.6-0.7,2.7-0.9-2.4-0.5
		c-3.4,0.6-6.9-0.1-9.9-1.9l-14.5-14.5l1.1,2.1l-4.1-31.1l-0.4,2.1l10.4-18c2.9-3.4,7-3.3,1-1.2c-6,2,5-1.3-1.5,0.5
		c-2.4,0.7-8.8,2.2-3,1.3c-3.2,0.5-6.4,0.3-9.5,0.5c-16.8,1-30.1,8.1-44.4,16c-18.5,10.1-26,37.2-14.5,55.2
		c11.5,18.8,35.9,25.2,55.2,14.5c1.2-0.6,13.3-7.8,13.5-7.4c0.6,1-17.6,2-8.3,2.4c2.7,0,5.4-0.1,8-0.5c15.1-1.1,29.8-5.2,43.4-11.9
		c13.1-6.6,24.6-17.5,27.7-32.3c5.1-23.6-9.1-47.1-32.4-53.4c-29.2-7.9-56.6,6-81.2,20.4c-5,2.9-10.1,5.5-15.1,7.9
		c-6.7,3.1-3.2,2.1-10.3,3.8c-6,1.5,4.5,0.2-1.7,0c-0.7,0-8.4-0.3-5,0c3.4,0.3-4.3-1-4.8-1c-3.4-1-2.6-0.3,2.4,2
		c5.5,2.4,9.4,7.4,10.4,13.4l-4.1,31.1l1.2-1.8l-24.1,18.6c-10.4,2.6-1.3,1.1,2,1c6.4-0.2,12.8-0.8,19.2-1.9c8.6-1.3,17-4.2,25.5-6
		c23.4-5,40-12.6,53.5-33.2L608.2,120c-2.5,1.1-16.5,2.7-7.8,3.8c3.4,0.3,6.7,0.2,10.1-0.2c8.3-0.5,16.5-1.7,24.5-3.8
		c14.6-4.3,33-13.5,40.3-27.6c10.1-19.1,5.5-39.2-7.1-55.6C657.4,22.7,644,19,628.2,13.3L646,23.7l-1.2-1.3l10.4,39.2
		c-2.1,5.5-6,10-11.1,12.9l7.8-5c6.4-4.1,12.4-8.7,18-13.9c10.6-10.1,16.5-24.2,16.5-38.8c-0.2-17.5-9.7-33.5-24.9-42
		c-13.7-7.3-28.8-5.4-43.6-5.4c-21.1,0-41.3,18.6-40.3,40.3S595.2,50,617.8,50z"/>
</g>
<path class="st5" d="M109.6,92.1c-26,0.4-38.8,18.3-55.8,34.6c-8,7.6,5.2-2.5-4.1,3.2c-3.4,2.1-6.7,4.7-10.2,6.5c5-2.5,1,0.6,0,0
	c-4,0.8-2.5,0.6,4.4-0.5c-4.7,0-2.9,0.5,5.2,1l17.8,10.4l-0.8-0.8l11.8,28.5v-1.2l-40.3,40.3c-7.6,0.6-3.9-0.4,0,0.3
	c5.5,1.1,11,1.8,16.6,2.2c9.4,0.3,18.7-0.5,27.9-2.5c14.7-3.5,28.6-9.8,40.9-18.5c4.8-3.3,9.9-6.1,15-8.9c0,0,9.4-4.4,5.6-3.1
	c-4.8,1.6,7-1.1,0.6,0c8.8-1.4,18.1-0.7,26.8-3.1c4.3-1.2,8.5-2.9,12.4-5c2.4-1.3,17.6-13.1,6.8-5l-20.2,5.4l2-0.3L133,146.1
	l0.3,1.7v-21.4l-0.6,1.5l10.4-17.8c2.1-2.2,4.7-3.9,7.6-4.8c3.3-1.3,3.4-1.4,0-0.3c-1.8,0.5-3.5,1.1-5.2,1.8
	c-19.4,8.1-35.5,27.1-28.2,49.6c6,18.6,28.8,36.8,49.6,28.1c7.9-3.3,16.3-5,23.7-9.8c18.2-11.6,23.6-29.6,20.2-50.1
	c-2.5-15.5-22.9-31.6-38.9-29.6c-6,0.4-12,1.7-17.6,3.7c-4.4,1.8-12.1,8.9-15.1,10.1c0.9-0.3,12.6-8.4,13.6-6.5
	c-0.3-0.7-9.8,0.8-10.6,0.9c-17,1.8-33.4,7.3-48.1,15.9c-5,2.8-9.9,6-14.8,9.2c-2.7,1.8-5.5,3.4-8.4,5c-1.6,0.9-5.4,2.1-1.6,0.8
	c-0.2,0-10.2,2.5-7.3,2.1c3-0.4-7.6-0.3-7.6-0.3c3.6,0.4,3.7,0.4,0.2-0.7c-5.5-1.6-11.2-2.2-16.8-1.9C15,135.3-1.4,150.8-2.7,174
	c-1.9,36.9,39.2,48.7,67.6,38.9c14.5-5,28.1-14.3,39.9-24c4.1-3.3,8-7,11.8-10.6c2.5-2.3,4.7-4.7,6.9-7.2c8.5-9.6,1,1.5-14,1.7
	c21.1-0.3,41.3-18.3,40.3-40.3C148.9,110.5,132.2,91.9,109.6,92.1z"/>
<path class="st6" d="M238.1,141.1c1.2,3-3.3,16.4-0.7,11.2c2-4-2.5,2.7-3.1,3.4c-2.5,2.9-3.9,0.7,1.1,0.6c-5.6,0.2,2.1,0,4.1,0
	c13.7-0.5,27.5,0.7,41.2-0.2c9.3-0.4,18.4-2.4,27-5.9c5.2-2.5,10.8-4.2,16.6-5c-8.9,1.7,5.6-0.6-1.1-0.4c-5,0.2,5.6,2.7-0.9-0.3
	c1.7,0.8,3.3,1.8,5,2.5c9,3.8,1.5,3.6-5-8l14.5-55.2c3.6-2,7.6-3.1,1.3-1.2c-2.8,0.9-5.6,2-8.4,3c-6.7,2.5-13.3,5-20.2,7.1
	c-10.6,2.9-21.4,5-32.3,6.4c-5,0.6-10.2,1.3-15.3,2c8-1.1-7.9,1.1-8.2,1.1c-7.5,1.7-14.8,4.5-21.6,8.2c-5.4,2.5,4.8-0.6-0.6,0.2
	c-4.8,0.7,4.4,0,4.9,0c4.3,0.6,3.3,0.5-2.9-0.4c-2.2-0.3-4.4-0.6-6.7-0.9c-7.6-0.2-15.1,1.6-21.7,5.3
	c-17.3,10.4-25.9,30.9-21.2,50.5c4.8,21.3,24.2,32.4,44.1,35.1c10.1,1.1,20.3,0.7,30.2-1.1c3.1-0.4,6.2-0.9,9.3-1.4
	c1.2-0.2,6.7-0.9,2.5-0.4c6.7-0.8,13.4-1.2,20.2-1.1c2,0,12.1,1,2.7-0.2c-9.4-1.2,4.6,3.3-7.3-2.5l-14.5-14.5l0.7,1v-40.8l-0.7,1.3
	l14.5-14.5c10.4-5.8,5.7-1.7,2.3-1.8l-4.2,0.8c2.9-0.4,2.9-0.4,0-0.1c-7.4,0.6-14.9,1-22.4,0.9c-18.1,0-30.2-3.3-48.9-4.8
	c-10.6-0.9-21.2,1.2-30.7,6c-1.3,0.7-2.5,1.4-3.7,2.2c-4.3,2.7-1.2,1.9,9.4-2.3c-2.2-0.7-6.1,0.5-8.4,0.6
	c-8.4,0.4-16.9,0.2-25.2,2.3c-5.1,1.2-10,3.1-14.7,5.6c-3.7,2-2.7,2,2.8,0c8.5-2.1,6.6-2.1-5.7,0c-7.8,1.3-15.3,3.8-22.4,7.4
	c-0.6,0.3-18.8,15.1-18.5,15.3c-2.5-1.4,14-4.6,1-2c-6.8,1.4,0.3,0.2-3.8,0.7c-7.1,0.9-14.3,1.7-21.4,1.9c-17.6,0.6-35.1-1-52.7,2.5
	c-18.6,3.7-42,12.6-50.4,31.1c-8,17.9-6.1,33.8,6.4,48.8c14.3,17.1,38.9,16.4,58.7,13.5c21-3,34.3-30.7,28.2-49.6
	c-7.4-22.9-27.1-31.4-49.6-28.2c2.8-0.4,8.5,0.6,3.3-1.6l17.8,10.4l-1.3-1.6l6.3,48.9c-1.9,3.9-5.2,7-9.2,8.7
	c-2.9,1.3-2,1.1,2.7-0.6c2.8-0.9,5.7-1.6,8.7-2.1c-5.8,0.7,7.1,0.3,6.9,0.3c3.7,0,7.4,0,11,0c17.3,0.1,34.6-1.3,51.8-4
	c16.9-2.5,33.9-9.5,45.4-22.7l2.5-2.5c-10.1,4.7-12.7,6.3-7.8,4.8c1.7,0.9,7.9-2,1.5-0.8c8.6-1.7,16.7-1.2,24.4-6.5
	c4.6-3.2-1.9-0.5-3.8,0.6c-2.5,0.3-2.4,0.3,0,0.2h5.5c2.8,0,5.6-0.4,8.4-0.6c10.7-0.9,20.7-2.2,30.2-7.4c11.1-5.9-7.2,1.6-7.3,0.9
	c0,0.2,11.9,1.4,12.2,1.4c-7.1-0.9,8.9,1.3,8.2,1.2c5,0.7,10.1,1.4,15.1,1.8c15.3,1.3,30.6,1,45.9-0.9c19.3-2.2,41.5-5.4,51.3-24.9
	c6.3-12.5,8.3-28.4,0-40.7c-13-19.4-33.6-24.1-55.6-23.7c-11.1,0.5-22.2,1.6-33.1,3.5l-10.5,1.6c-6.6,0.5-2.5-1.7,2,1.6l18.5,24.1
	l0.7,5.9l-5.5,20.3l0.8-1.9l-14.5,14.5l1.7-1l-20.5,5.5c-11.1-1.3,0.8,0.5,5.2,0.8c3.9,0.2,7.8,0,11.7-0.7
	c8.7-1.1,17.2-3.6,25.2-7.3c0.8-0.4,6.9-2.8,6.9-3.5c0,1.7-15.5,2.9-0.9,0.9c6-0.8,13.4-1.7,23.7-3.1c13-1.5,25.8-4.2,38.4-8
	c13.7-4.5,29.3-8.8,42-15.6c19.5-10.5,24.8-36.6,14.5-55.2c-10.7-19.3-41.8-33.1-63.4-33.7c-13.3-0.3-26.6,1.9-39.1,6.5l-9.7,4.1
	c-4.9,2.3-5.6,2.5-2.2,0.6c7.8-1.3-8,0-9.9,0c-24.5,0-52.1-2-74.1,10.6c-24.4,13.9-44.2,48.4-33.3,76.4
	c7.6,19.6,27.4,35.3,49.6,28.2C229,184.5,246.3,162.1,238.1,141.1z"/>
<g class="st0">
	<path class="st1" d="M19.3,161.6c-10.4,0.4-20.7,1.6-30.9,3.4c0.4,0-12.3,1.8-7.6,1.2c-6.4,0.5-12.7,1.4-19,2.5
		c-28.6,7.3-48.9,41.8-31.4,69c15.8,24.5,42.8,22.9,67.4,15.9c1.4-0.4,12.7-5,7.4-2.5h4c-4.1-0.8-4.7-0.9-1.9-0.2
		c4.9,2.2,11.8,2.2,17.4,2.2s12.6,1.6-0.4-1.6l-28.1-28.2l0.2,0.7l18.5-45.5l-0.9,0.6l20.3-5.6c-13.9,0.9-26.6,0.5-39.4,7.3
		c-14.8,7.9-24.2,29.4-18.5,45.6l0.4,1.2c4.4,12.6,14.1,25.7,28.2,28.1c19.5,3.4,39.6-0.7,58.7-5c9.1-2.1,17.6-6,26.6-8.4
		c-5.6,1.5,4.4,0,6,0.2c4.2,0.2,8.5,0.7,12.6,0.9c9.8,0.5,19.5-0.3,29.1-2.5c3.7-0.8,7.4-1.9,10.9-3.4c6.5-2.8-9.4-0.7,1.3,0.3
		c29.1,2.7,50.9-16.1,53.5-44.9l-40.3,40.3c6.5-0.4-5.4-1.7-0.9-0.3c4.9,1.2,9.9,1.9,14.9,2c6.8,0.5,13.7,0.3,20.5,0.2
		c21.1-0.2,41.3-18.4,40.3-40.3c-1-22.3-17.6-39.8-40.3-40.3c-4.7-0.2-3.6,0,3.5,0.7c-4.1-1.1-8.4-1.6-12.6-1.4
		c-20,0.2-36.9,15-39.6,34.8c-2.5,19.1,9.3,39.6,28.9,44.3c7.7,1.6,15.5,2.4,23.3,2.5c21.1,0.9,41.3-19.2,40.3-40.3
		c-0.5-22.1-18.2-39.9-40.3-40.3c-2.3,0-11.1-1.8-1.9,0.4l-10.7,79.2c-10.3-1.7-9-1.6,4,0.3c1.7,0.3,3.5,0.4,5.3,0.4v-80.6
		c-3.2,0-18,2.1-20.5-0.2c1.6,1.5,8.4,1.3,1.4-0.3c-5.1-1.2-10.3-1.7-15.5-1.5c-23.3,1.4-38.2,17.4-40.3,40.3l-0.2,1.9l11.8-28.5
		c1.8-1.8,27.7-8.5,15.5-9.1c-4-0.1-8.1,0.3-12,1c-6.1,0.7-12.1,2-17.9,4c-3.3,1.2-4.8,1.3-0.3,0.8c-3,0.2-6,0.2-8.9,0
		c-6.4-0.2-12.6-1.1-19.1-1.1c-15.5,0-28.4,5.6-42.8,9.6c-6.4,1.7-12.9,3.2-19.4,4.5c4.6-0.9-4.6,0.5-5.7,0.7
		c-3.5,0.8-9.9-0.5,2.5,1.6l28,28.3l-0.4-1.2l-18.5,45.5l1.7-0.9l-20.4,5.5c12.9-1.6,27.4,0.9,38.6-7c14.6-10.1,23.9-27.5,18.5-45.5
		c-4.4-16.1-18.1-27.9-34.7-29.9c-4.3-0.6-8.6-0.7-12.9-0.3c-8.6,0.8,5.5,2-2.5-0.4c-11.6-3.4-26.8-1.6-38.2,1.1
		c-4.7,1.1-9.3,2.8-14,4c-13.2,3.6-0.9-0.7,4.3,1.3l28.1,28.2l-0.7-2V226l-2.1,4.4l-14.5,14.5c-11.5,2.3-14.3,3.1-8.4,2.2l6.9-0.9
		c5.9-0.8,11.7-1.5,17.6-2.5c1.2-0.2,11.2-1.7,4.1-0.8c4.1-0.5,8.1-0.7,12.2-0.8c21.1-0.4,41.3-18.2,40.3-40.3
		c-1-21.5-17.6-40.8-40.3-40.3L19.3,161.6z"/>
</g>
<path class="st1" d="M205.7,224.9l0.7,0.9l14.5-55.2l-2.1,1l20.4-5.5c-4.4,0.5-8.8,1.1-13.1,1.7c4-0.4,3.6-0.4-1.2,0
	c-4,0.2-7.9,0.4-11.9,0.6c-13,0.3-25.7,3.2-37.6,8.5c-10.2,4.7-17.6,12.8-25.5,20.3c-3.7,3.5-7.6,7.1-11.6,10.3
	c7.6-6-7.1,2.8-3.8,1.6c2.1-1,1.1-0.8-3.2,0.8c-2.7,0.8-5.5,1.4-8.3,2c6.1-1.2-6.8,0.6-8.3,0.7c-2,0-4,0.2-6,0.2
	c4,0.7,3.8,0.5-0.8-0.6c-4.2-1.5-8.5-2.9-12.8-4.2c-6.8-2-13.8-3.1-20.8-3.3c-6.5,0.2-13,0.9-19.4,1.9c-2.9,0.6-1.9,0.6,3,0
	c-7.2,0-14.2,1.9-20.3,5.5c-3.4,1.6-3,1.5,1.1-0.3c-2.7,0.8-5.5,1.5-8.2,2.5c-29.8,8.8-38.4,44.7-17.8,67.2l0.7,0.7
	c14.3,15.6,42.8,15.5,57,0c15.3-15.9,15.3-41.1,0-57l-0.7-0.7L52,291.9c9-2.6,17.8-6,26.3-10.1l-20.4,5.5c4.7-0.5,9.4-1.1,14-1.8
	s3.9-0.9-1.9,0h4.3c-4-0.6-3.6-0.3,1.4,1.1c10.5,4.3,21.6,6.7,32.9,7c22.7,0.5,45.2-4.4,65.7-14.3c9.1-5,17.5-11.1,25-18.3
	c3.8-3,7.3-6.2,10.7-9.7c3.7-3.4,4.2-4.2,1.5-2.5c-2.5,1.5-2,1.2,1.4-0.8c-4.3,1.8-4.3,2,0.2,0.7c-4.7,0.6-5.4,0.7-2.1,0.5
	c4.6,0.1,9.2-0.1,13.8-0.6c6.2-0.5,12.4-1.4,18.6-2.3c-7.9,1-5.8,0.6,6.4-0.9c4-1.5,7.9-3.2,11.7-5c18-8.5,26.9-39,14.5-55.2
	l-0.7-0.9c-12.8-16.7-35.3-27.3-55.2-14.5C203.7,180.3,192,207,205.7,224.9z"/>
<g class="st0">
	<path class="st1" d="M113.1,212.6c-17.9,0-35.9,1.6-53.8,1.9c-4.4,0-8.7,0-13.1,0l-4.3-0.2c3.6,0.6,3,0.3-1.9-0.7
		c-0.9-0.3-10.3-4.2-6.4-2.4c3.9,1.8-10.4-7.9-1.9,0.1c-15.5-14.3-41.9-16.6-57,0c-14.2,15.5-16.6,41.8,0,57
		c39.1,35.8,90.7,24.8,138.4,25c21.1,0,41.3-18.6,40.3-40.3S135.7,212.6,113.1,212.6L113.1,212.6z"/>
</g>
<g class="st0">
	<path class="st7" d="M439.4,258.4c28.6,0,57.5,1.3,79.9-19.9c5.1-5.2,9.5-11,12.9-17.4c2.2-4.3,4.2-8.8,5.9-13.4
		c1.5-4.4,1.3-4.1-0.5,0.9c2.1-3.7,1.7-3.6-1.2,0.3c-4,3.3-3.8,3.6,0.6,1c-3.9,1.4-3.6,1.4,1,0l6.3-1.3c2.9-0.5,2.8-0.6-0.2-0.2
		c2.9-0.2,5.8-0.2,8.8-0.2c8.1-0.1,16.2-1,24.1-2.5c14.4-3,25.4-10.3,35.9-20.2c-7.9,7.6,8.5-4.6,1.2-0.5c5-1.1,5.5-1.5,1.7-1.2
		c2.9-0.3,5.7-0.4,8.6-0.4c15.8-0.3,28.5-1,42.8-8.8l-59.2-24c0,0.6-1.7-9.7-1.5-5.2v1.1c-0.7-5.2,1.6-10.4,5.8-13.6
		c-1.7,1.7,6.2-6.8,6.9-5.7c-0.4-0.7-9.9,3.5-8.4,2.9c-12,5-20.9,13.3-29.6,22.8c-2.5,2.8-5.2,5.7-8,8.4c4.5-4.1-0.3,1-1.5,0.9
		c0.2,0,3.6-0.6,3.7-0.6c2-1.4-0.9,0.2-2.8,0.3c-2.8,0-5.5,0-8.3,0c-4.6,0-9.2-0.3-13.7-0.2c-26.5,1-49.4,20.2-63.7,41.4
		c-1.1,1.6-2,3.6-3.2,5c1.6-2,3.5-3.3-1,0c2.9-2.2,8.6-3.8,2.3-2.5c7-1.3,10.9,1.9-5,0.6c-0.8,0-5-0.4-0.8,0c5,0.4-2.2-0.5-2.7-0.5
		c-3.5-0.3-7.2,0-10.7,0c-26.3,0-50.1,2.7-65.7,26.8c-19.4,30,2.1,65.3,34.6,70.7c13.2,2.2,26.2,3.5,39.1-0.7
		c13-4.2,22.7-11.7,33.1-19.4c3.9-2.9,7.8-5.8,11.9-8.5c1.8-1.2,3.5-2.3,5.3-3.4c0.8-0.5,8.4-3.8,4.4-2.3c-3.6,1.3,9.5-2.5,5.4-1.5
		c-4.5,0.9,4.3-0.4,5-0.4c3-0.2,6-0.2,9-0.4c28.5-1.8,51.3-10.2,72.6-29.5c4-3.7,7.7-7.6,11-11.9c0.8-1,16.4-25.2,14.6-24.8
		c0,0-7,8.8-3.7,4.7c2.8-3.6-3.8,0.9,0.6,0c2.4-0.6,2.4-0.6,0,0c-7.2,1.8-14.1-0.4-20.6-6.7l-10.4-17.8c3.2,9,0-15,5-15.3
		c-0.1,0-8.2,7.4-3.6,3.9c4-3.1-3.9,2.1-4.8,2.5c-3.5,1.8-7.1,3.1-10.6,4.8c-12.4,6.1-24.1,13.2-36,20.2c-12.9,7.6-28,16-38.4,26.8
		c-1.4,1.4-12.1,13.6-6.8,8.4c-2.5,2.5-5.2,4.7-7.9,7c-1,0.8-7.6,5.7-4,3.3c5.4-3.7-2.4,0.5-4.5,1.1c-2.7,0.9-5.4,1.8-8.1,2.5
		c-2.3,0.5-2.2,0.5,0.2,0l-4.5,0.3c-7.6,0-15.4,0.7-23.1,0.2c-2.8,0-2.7,0,0.2,0l-4.3-1.2c3.2,2.2-6.2-4.5-6.2-4.5
		c-7.6-4.9-16-8.4-24.8-10.3c-10.2-1.7-20.5-2.4-30.8-2c-3.8,0-7.6,0.5-11.2,1l-13,1.8h-0.8c-19.8,2.6-35.3,6.4-51.1,19.6
		c-23.4,19.5-10.1,60.7,17.8,67.4c29.2,7.1,53.3,2.3,76.1-17.6c1.4-1.2,2.7-2.5,4-3.7c3.6-3.1,3.6-3.2,0-0.5c6.2-3.4,4.1-3.4-6-0.2
		c1.9,0.1,3.8,0,5.6-0.2c24.2-1.5,5-1.3,5.2-0.7c0.3,2.9,18.6,3.9,18.8,4c27.2,2.9,44.5-28,38.9-51.1c-7.3-30-43.5-42.3-70.3-33
		c-8.3,2.9-16.5,6.6-25.2,8.3c-4.6,0.9-9.2,1.7-13.7,2.8l-7.9,2.7c-8.7,1.8-5.3,2.1,10.3,0.8l17.8,10.4l-1.7-1.7l10.4,17.8l-0.7-2.3
		v21.4c-2.2,12.6-10.7,13.6-4,8c1.9-1.6,3.6-3.5,5.5-4.9c-5.4,3.9,4-2,0,0.2c-3.2,1.8,6.1-2,6.5-2.1c14.7-4.4,29.7-8.3,42-17.8
		c4.7-3.7,10.6-7.7,13-13.5l1.8-2.3L452.2,254c4.7-3.2,2.5,0.8-0.8-0.2c-2.8-0.9,6.7,1.5,7.8,1.7c18.9,3.7,38.4,1.3,55.8-6.8
		c19.1-9,25.5-38,14.5-55.2c-12.6-19.7-34.7-24.1-55.2-14.5l4.3-2.3c-4.1,0.8-4.6,0.9-1.6,0.5c6.4-0.4-7.1-1.3-0.8-0.4
		c-8.7-1.4-17.2-3.7-26.1-3.3c-18.9,0.9-36.1,6.8-47.9,22.1c-1.8,2-3.4,4.2-4.7,6.6l7.2-8.1l3.2-1.1c-1.7,0.7-3.4,1.3-5,1.8
		c-5.8,2-11.9,3.2-17.6,5.2c-15.6,5.2-30,13.5-42.1,24.6c-13,11.6-21.7,27.5-19.3,45.4c3,22.7,23.2,41,46.8,39.5
		c13.6-0.9,27.5-5,40.8-8.2c6.1-1.7,12.1-3.8,18-6.2c1.8-0.6,5.5-1.1,6.9-2.5c-5,4.5-17.9-4.3-20.7-6.9l-10.4-17.8l0.5,2l38.9-51
		c18.4,1.9-12.6-3.7-11.9-3.7c-5.9-0.5-11.7,1.4-17.6,1.1c8.4,0.5-2.1-0.3-4,0c-9,0.6-17.8,3.2-25.7,7.6
		c-8.8,5.1-16.9,11.4-24.1,18.5c-6.1,5.8,1.4,0.4,3-0.7c4.3-0.4,4-0.5-1-0.5c4.1,0.5,3.8,0.3-0.9-0.7l17.8,67.4
		c-0.3,0.3-6.7,6.1-8.3,5c2.2-0.4,4.4-0.9,6.5-1.6c1.2-0.3,7.1-1.1,0.5-0.2c5-0.7,10.1-1.6,15.3-2.1c-1,0-3.9,0.3,0.7,0
		c3-0.2,5.9-0.2,8.9,0c2.9,0.4,5.9,0.4,8.9,0.2c4.1-0.9,0.4,0.2-1.8-1.1c11.5,6.6,22.2,13.5,35.4,16.4c13.2,2.8,26.5,2.5,39.8,2.2
		c29.2-0.8,54.3-9.6,76.8-28.1c3.9-3,7.7-6.2,11.2-9.7c3.3-3.5,5.7-7.8,9-11.4c-6.7,7.3,0.2,1,0,0.7c0.2,1.1-8.8,5.7,0.8,0.3
		c2.4-1.3,4.7-2.9,7-4.4c4.6-3,9.1-6,13.8-8.8c9-5.4,17.8-10.4,27.1-15.1c9.3-4.7,18.6-8.5,26.8-14.5c26.3-19.2,43.1-48.9,29.4-81.3
		c-14.4-34.2-57.5-35.1-86-18.7c-12.2,6.8-21.8,17.3-27.7,30c0,0.2-7.6,13.2-3.6,7.6c1-1.4,4.6-4.6-1.2,1.4
		c-3.4,3.9-7.3,7.4-11.5,10.5c6.1-4.1-1.3-0.3-1.2,0c3.7-1.6,4.1-2,1.3-1.1l-3.4,0.9c-1,0.3-9,1.7-5.2,1.2c2.9-0.4-7,0.2-8.1,0.3
		c-16.8,0.5-33.3,4.2-48.8,10.9c-11.8,5.3-21.8,13-32.2,20.6c-2.3,1.7-4.5,3.4-6.9,5c-1.7,1.2-3.4,2.4-5.2,3.4l2.2-0.8
		c-1-0.2,5.9-0.7,5.6,0c-0.3,0.7-8.9-2-9.5-2.2l17.8,10.5l-2.2-1.8l10.4,17.8l-0.6-2.5v21.4l-12,14.3c-12.2,2.5-15.5,3.6-9.9,3.4
		c3.1,0.4,6.2,0.4,9.2,0h19.4c5.9,0,11.8-0.4,17.6-1.5c5.5-0.9-1.1,0-3,0.4c11.1-1.8,19.4-3,29.7-8c6.7-3.5,12.8-8,18.1-13.3
		c3.7-3.6,7-7.5,10-11.8c0.6-0.8,6.2-9.7,3.6-6c-2.2,3.2,4.4-4.3,4.5-4.4c2.9-2.8,1.9-3.4,0.8-0.7l2.9-1.9c-11,2-13.8,2.9-8.3,2.9
		c3.3,0.3,6.6,0.4,9.9,0.2c30.6,0.4,63.3-12.6,80.6-39.5c2.8-4.4-3.6,1.3-4.2,2.1c2.1-2.8,11.4-3.9,14.6-5.6
		c8.4-4.7,15.5-11.3,20.9-19.2c10.3-14.5,12.6-33.7,9.3-51c-5-26.5-38-35.6-59.2-24.1c10.5-1.7,12.3-2.4,5.4-2.2h-7.6
		c-7.9,0.1-15.8,0.9-23.6,2.3c-11.2,2.3-21.9,6.5-31.7,12.4c-1.7,1-14.8,14-15.8,13.6l8.8-5c-2.2,0.7-4.4,1.3-6.7,1.7
		c4.7-0.6-9.8-0.4-11.5-0.3c-7.1,0.6-14.3,1.6-21.3,3c-23.8,4.5-45.8,17.3-56.4,39.7c-1.9,4.2-3.6,8.4-5.2,12.6
		c1.9-4,1.7-3.8-0.9,0.9l7.7-7.1c-1.7,1-3.4,2-5,2.8c10.7-1.5,12.5-2.2,5.4-2h-29.1c-21.1,0-41.3,18.5-40.3,40.3
		s17.6,40.3,40.3,40.3V258.4z"/>
</g>
<g class="st0">
	<path class="st4" d="M121.4,299.2c-19.3,0-26.7,2.9-48.3,1.3c-16.2-1.2-32.4-2.3-48.5,0.9c-24.4,4.9-46.8,31.3-38.5,57.4
		c8.6,26.6,33.6,33.1,58.7,30.7c9.1-0.9,18-2.5,26.8-4.8c3.4-1,6.8-1.7,10.3-2c-9.6,0.7,10.4,1.3-4.1-0.3c21.9,2.4,40.9,7,61.6-4.8
		c24.1-13.7-5.5-1.9-9.8,1.4c-4.6-1-4.4-0.9,0.7,0.4l3.9,1.2c11.2,2.7,22.8,3,34,0.8c6.1-1.3,12-3.3,17.6-6c-7.8,3.4,4,0-5.8,0.9
		c0.9,0,9.5,0.5,5,0c-2.7-0.4-2-0.2,2.1,0.6c5.4,1.7,4.6,1.2-2.7-1.6L165.8,351l0.3,0.8l4.1-31.1l-0.7,1.3l24.1-18.5
		c-1.8,0.8-3.7,1.3-5.6,1.4c3.9-0.6,4.3-0.9,1-0.8c-5.8-1.1-15.1,0.5-20.2,1.4c-3.3,0.7-6.6,1.6-9.8,2.8c-1.5,0.6-11.3,3.8-4.6,2.5
		c-20.9,4.1-43.1-3.4-64.4-0.5c-3.1,0.4-6.1,0.8-9.2,1.3c3.9-0.6,3.2-0.6-2.2,0c-4.6,0-9.1,0.3-13.7,0.3c-7.6-0.1-15.1-0.9-22.7-1.3
		c-19.3-1-37.8-2.7-55,8.5c-11.4,7.4-21.1,20.5-20,34.8c4.6,59.7,79.3,45.1,120.2,42.8c19.5-1.1,38.7,0.8,58.1,1.4
		c11.4,0.1,22.8-0.9,33.9-3.1c4.1-0.8,8.1-1.8,12-3c1.9-0.8,3.8-1.4,5.8-1.8c7.6-1.3,4.3-1.6-9.7-0.8l-17.7-10.4l0.8,0.9v-57
		l-1.1,1.1l17.8-10.4c-8.3,2.8,5.4,0-0.3,0.6c-3.4,0.3-6.8,0.8-10.1,1.2c-11.3,1.5-18.8,5.3-28.1,12.6
		c-23.7,18.6-9.9,61.5,17.8,67.4c24.8,5.2,50.9-0.5,76.1,1c16.3,1,31.7,2.3,46.6-6c17-9.4,28.4-30.5,25.8-49.7
		c-3.2-23.7-24.2-37.3-47.2-37.3c-7.5,0.1-14.9,0.9-22.2,2.5c-3.5,0.7-4.8,0.6-0.6,0.4c-3.1,0.2-6.2,0.2-9.3,0
		c-5.6-0.4,4.8,1.7-1.1-0.5c-2.8-1-5.6-2.1-8.5-3c-6.6-1.7-13.4-2.9-20.2-3.6c-16.6-2.2-33.8-2.3-48.9,5.8
		c-18.6,10.1-26,37.3-14.5,55.2c11.5,18.9,35.8,25.4,55.2,14.7c-14.3,3-17.4,4.4-9.1,3.9h3.8c4.4,0.4,5,0.3,1.8-0.3l4.2,0.7
		c9,1.9,17.2,5.4,26.5,6.7c9.6,1.3,19.3,1.3,28.9,0c3.1-0.3,6.2-0.8,9.3-1.4c4.5-0.9,5-1,1.8-0.6c-3.3,0.5-2.7,0.3,1.4,0
		c4.6,0,3.8-0.2-2.5-0.6L239.8,365l0.8,1.5l-4.1-31.1c0.9-4.9,17.9-21.8,23.2-18.3c-1.7-1.1-10.7-0.8-12.4-0.9
		c-8-0.6-15.8-0.6-23.8-0.6c-8,0-16.1,0-24.1,0.6c-4,0.3-8,1-12.1,1c-3.5,0-11.8-2.1,0.8,0.5l17.8,67.5l0.8-0.7l-17.8,10.4
		c6.7-1.9-10.1,0.7-1.8,0c3.4-0.3,6.9-0.8,10.3-1.3c11.5-1.6,22-5,30.2-13.7c15.3-15.9,15.3-41.1,0-57
		c-16.8-17.9-40.5-13.3-61.3-7.4c-8,2.3-9.2,1.9-19,1.7c-9.8-0.2-19.8-1-29.6-1.6c-17.5-0.7-35-0.1-52.4,1.8c-9.3,1-18.6,1.5-28,1.5
		c-4.6,0-9.1-0.4-13.7-0.7c-12.8-1.1-0.4-1.4,4.1,2l20,34.8l-0.1-1.4l-20,34.8c3.4-2.1,2.5-1.9-2.5,0.6c-5.5,0.6-5.8,0.8-0.9,0.7
		c4.7,0.7,9.7,0.7,14.5,1c7.2,0.5,14.3,1.1,21.5,1.4c12.7,0.2,25.5-0.6,38.1-2.4c4.9-0.7,5-0.7,0.8,0c2.9-0.2,5.9-0.2,8.8,0
		c4.7,0,9.4,0.5,14.2,0.9c12.3,1.3,24.7,1.4,37,0.3c6.1-0.5,12.1-1.7,17.9-3.5l6.7-2.5c4.2-1.4,4-1.4-0.6,0
		c10.7-0.3,21.5-0.4,31.8-3.5c21.8-6.6,34.6-29.3,28.8-51.3c-7.7-27.7-41.3-36.1-66.8-34.2c-6.9,0.4-13.7,1.9-20.2,4.6l-9.5,4
		c2.1-1.5,4.6-2.2,7.2-2c-4.9-0.2-4.5-0.1,1.1,0.4c-2.5-0.8-5.2-1.6-7.8-2.3c-6.5-1.5-13.1-2.2-19.8-2.1c-8.7,0.1-17.2,2.4-24.8,6.5
		c-3.5,2.3-6.8,4.8-9.9,7.6c4.1-5.7,9-8.1,14.9-7.1c-0.5-0.3-11.9-1-5.9,0c-6.5-1.4-13.1-2.3-19.8-2.7c-10.9,0.1-21.7,1.6-32.2,4.4
		c-1.9,0.5-16.1,2.8-7.2,2.2c-2.6,0.2-18-1-6.5,1.2l24.1,18.5l-0.8-1.1l4.1,31.1c-1.4,4.4-3.7,8.5-6.7,12l-17.8,10.4
		c8.1-3.3-6.6-0.9,2.9-1.2c3.6,0,7,0,10.6,0c7.6,0.2,14.9,0.8,22.4,1.4c7.4,0.5,14.9,0.6,22.4,0.3c6.2-0.2,12.2-1.6,18.4-2
		c-6.1,0.4,4.4,0.2,5.2,0.2c21.1,0,41.3-18.6,40.3-40.3c-1-21.7-17.6-40.3-40.3-40.3L121.4,299.2z"/>
</g>
<g class="st0">
	<path class="st3" d="M514,322.3c25.6,0.6,48.2-5.2,61-29.5c10.8-20.4,7.2-47.7-1.8-68.2c-11.4,22.1-13.1,29.1-5,21.1l-7.8,4.6
		c2.6-0.7,5.3-1.3,7.9-1.6c-4.2,0.4-4.8,0.5-2,0.3c1.7-0.1,3.4-0.1,5,0c-15.6-0.4-22.3-12.9-19.9-37.6c-3.7,3.9-5.3,11-7,16.1
		c-9,27.1-1.6,59.9,29.5,67.3c31.1,7.4,61-11.5,63-44.2c1.8-29-17.9-44.4-43.1-51.9c-28.4-8.6-61.9-5-72.2,27.7
		c-3.8,11.8-4.4,24.4-1.7,36.5c1.5,5.8,4,11.2,7.4,16.2c2.6,4,5.6,7.6,9,10.9c7.1,7.1,5.9,1.7-3.7-16l5.5-20.3l-1.1,2l14.5-14.5
		l5-2.4c-3,0.5-3,0.6,0,0.2c3-0.4,2.9-0.4,0.6,0c-1.7,0.2-3.5,0.3-5.3,0.3c-2.5,0-5,0-7.4,0c7.9,0-5-0.9-9.4-1
		c-22.4-0.7-41.9,10.9-48.8,32.8c-14.1,44.1,40.6,71.3,76.5,66.3c31.6-4.2,60.8-26.3,69-57.8c1.7-8.4,2.8-16.8,3.3-25.4
		c0.3-2.9,0.7-8.9,0-2.8c0.3-2.3,1-4.6,1.3-6.9c-0.7,5.9-0.1,1.6,1.2-1.4c2-4.5-2.3,2.5-2.3,2.5c0.5-1.1,5.6-3.6,0.7-0.6
		c4.3-1.1,5-1.5,2.4-1.1c-2.7,0.3-1.9,0.3,2.3,0.6l-20.3-5.5c-8.7-5.5-13.2-12.8-13.6-21.8c16.5-21.6,20.1-29,10.6-22.1
		c-5.7,3-10.9,6.8-15.6,11.2c-3.8,3.8-7,8-9.7,12.6c-1.1,2-2.2,4.1-3.1,6.1c-6,13.2-5.4,12.9,1.8-1c3.5-2.8,3.3-3-0.6-0.6
		c4.1-1.6,3.9-1.5-0.5,0c-5.7,1.7-11.1,4-16.4,6.8c-13.2,7.9-22.5,20.9-25.8,35.9c-4.4,20.6,6.1,44.6,28.1,49.6
		c20.3,4.6,44.9-6.1,49.6-28.1c1.4-4.9,0.5-4-2.7,2.5c-2,5.2-6.2,9.2-11.5,10.9c2.2,0.6,10.1-4,11.6-4.7c9.2-3.6,17.7-8.9,25-15.6
		c4.1-3.7,7.5-8.1,10.1-12.9l4.1-9.6c-2.2,4.6-2.5,5.4-1,2.5c4.5-6.9-14.6,10.4-5.3,5.3c2.5-1.5,5-3.2,7.3-5
		c19-14.3,28.7-34.8,22.7-58.6c-6.1-24.2-25.4-38.9-50.6-38.9c-39.2,0-72.8,32.8-78.1,70.3c-1.3,8.7-1.1,18-2.9,26.7
		c0.6-3.6,0.3-2.9-0.9,2l1.2-3.5c1.9-2.2,8.3-6.5,2.2-3.2c-1.1,0.6-9.5,4-4.3,2.4c2.8-1.2,2.2-1.1-1.6,0.2l3.8-0.4
		c-4.1-0.2-4.7,0-1.6,0.2s2.5,0.2-1.5-0.8c2.5,1.1,9,6.2,3.4,0.5l10.4,17.8l-1.3-3.3v21.4l0.9-2.7l-18.5,24.1
		c-4.8,3.3-10.7,4.3-16.3,2.9c4.9,0.8,9.9,1.4,14.8,1.8c4.8,0.2,9.6,0.1,14.3-0.4c13.7-1.3,26.6-3,37.8-11.7
		c14.7-11.7,20.6-31.2,15-49.1c-2.2-7.3-8.3-19.2-15.1-23.2c-6.2-6.3-5.3-2.1,2.8,12.6c-0.1,2.7-0.9,5.3-2.2,7.6l-24.1,18.5
		c-7.6,2.3-11.1-0.7-2.2,1.8c9.3,2.5,12.6,7.9-2.7-4.4l-10.4-18c-1.2-3.7-1.2-7.7,0-11.4l10.4-17.8l-1.9,2l17.8-10.4
		c6.8-0.6,8.5-0.8,5.2-0.6c-3.3,0.2-1.6,0.5,4.2,1.2l17.8,10.4l-1.4-1.5l11.8,28.5c-0.2-4.4-0.4-4-0.7,1.3c0.5-2.1,1.1-4.2,1.8-6.3
		c-1.7,4.2-1.5,4.2,0.5,0l4.1-9.6c5.6-14.8,2.5-31-5.8-44.1c-17.4-27.3-47.3-29.4-76.1-23.9c-28.1,5.3-52.1,29.2-51.7,58.6
		c0.2,11,3.6,22.1,7.2,32.4c0.7,2.8,0.9,2.5,0.6-1.2c-0.2,7.2,0.8,5.2,2.9-5.9c23.3-9.4,29.1-13.8,17.4-13.3c-2.5,0-4.9-0.2-7.3-0.2
		c-21.1-0.5-41.3,18.9-40.3,40.3c1,22.3,17.6,39.8,40.3,40.3L514,322.3z"/>
</g>
<g class="st0">
	<path class="st7" d="M-38.7,309.5c7.9,26.5,30.7,33.2,55.4,34c8.6,0.4,17.2-0.6,25.5-2.9c5.4-1.8,10.7-4.1,15.6-7
		c0.9-0.5,9-5.5,4.4-3.1s5.9-1.5,6.3-1.6l4-0.9c-3.3,0.4-3.5,0.6-0.7,0.5c3.8,1.1-3.5-2.2,2.7,1.2c11,6.1-5.6-4.6,4.7,2.8
		c14.3,10.3,36,19.6,53.5,12.4c16.1-6.6,30.5-19.8,29.6-38.9c-0.5-18-12.4-33.6-29.6-38.8c-15.4-4.1-31.6-4.1-47,0
		c-9.6,2.9-18.4,7.9-25.8,14.5c-2,1.9-3.9,3.9-5.6,6c-2.5,3.4,2.7-1.2,3.5-1.9c3.5-3-2.4,0.6-4.5,1.1c6.1-1.2-1.4-0.3-4-0.3
		c-0.9,0-9.9,0.2-5,0.2c2.9,0.4,2.3,0.4-1.6-0.2l-10.7-1.4c8.9,1.3-2.4-0.5-5-0.9c-3.6-0.5-7.2-1-10.8-1.3
		c-10.6-1.1-21.2,1.2-30.5,6.4c-39.7,24.2-26.7,78.5,9.2,98.8c21.3,12,42.4,7.8,60.8-6.7c2.4-1.8,4.6-3.8,7-5.6
		c1.8-1.5,2-1.6,0.5-0.4c-2,1.6-1.2,1.2,2.3-1.3c-1.3-0.3-4.4,0.9-5.9,0.8c-8-0.4-19.2-8.6-20.9-16.6v-21.3l-0.4,2.5L48.6,322
		l-1.4,1.4L65,313c7.1-0.5,8.4-0.7,3.9-0.7c3.3-0.2,6.5,0.8,9.2,2.7l14.5,14.5l-1-1.7L67.4,387c-5.7,0.3-6.3,0.5-1.8,0.6h7.2
		c21.1,0,41.3-18.5,40.3-40.3c-1-21.8-17.6-40.3-40.3-40.3h-4.1c-21.1,0-41.3,18.5-40.3,40.3c1,21.8,17.6,40.3,40.3,40.3h4.2V307
		c-9.1,0-18.1-0.9-26.8,2.2c-23.7,8.6-38.6,35.5-24.1,59.2c12.6,20.5,39.6,28.7,62.5,22.8c29.9-7.6,41.4-42.3,26.6-68
		C99.6,304,78,293.1,55.7,295.1c-12.2,1.1-23.9,5.2-34.1,11.9c-4.4,3.1-8.7,6.3-12.9,9.8c-1.5,1.2-3,2.4-4.5,3.7
		c-5.9,4.5-3.7,3.3,6.6-3.6h21.4c2.1,0.4,7,6.4,4.7,3c-2.3-2.4-1.9-1.3,1.2,3.2c4.7,6.5,5.2,14,1.3,22.5l-14.5,14.4l2.9-1.6
		l-20.3,5.5c2.9-0.2,14.7,1,7.1-0.2c4.7,0.7,9.3,1.4,14,2c-3.8-0.5-5-0.7-0.4,0c16,2.8,32.4,2.3,48.2-1.2c13.2-3.3,25.2-10,35-19.4
		c0.8-0.8,1.6-1.6,2.3-2.5c1.6-1.6,1.5-1.7-0.5-0.2c-0.2,0-5.8,2.5-5.9,2.5c-2.3,0.4-2.3,0.5,0,0.4h3.6c3.6,0,8.1,2,0.4-0.3v-77.6
		c2.3-0.9,16.3-1.6,18.3,1.7c-0.8-1.3-5.2-3-6.6-3.9c-6.2-4-12.8-7.3-19.6-10.1c-13.5-5.9-28.3-8-42.8-6.1
		c-13.7,1.4-26.9,5.6-38.9,12.3c-0.9,0.5-6.6,5-2.6,2.3c2.7-1.9-2.2-0.5,0.1,0c3.4,0.7-3-0.8-4.4-0.6c-2.5-0.2-2.7,0-0.8,0.2
		c2.6,0.4,5.1,1.4,7.3,2.9l18.5,24.1l-0.6-1.9c-5.8-20.2-28.5-35-49.6-28.2C-31,266.7-45.1,287.9-38.7,309.5z"/>
</g>
<g class="st0">
	<path class="st5" d="M483.5,384.9c13.8,0,27.7,0.8,41.3-1.9c14.5-3.2,28.1-9.7,39.8-19c14-10.8,21.8-24.1,28.9-40.1
		c-1.3,3,0.9-0.5,0.7-1.3l1.3-2.8l-8.1,7.3c-1.1,0.6-8.2,1.5-3.8,1.3c3.6-0.2-2.9-1.3-4.9-2.2l-14.5-14.5l1.3,2l-5.5-20.4v2.8
		l5.5-20.4c3.8-4.5,4.2-5,1.2-1.9s-2.8,3.4,1.3-0.2c-4.9,2.8-9.6,6.1-14,9.7c-11,10.1-17.9,24.4-16.6,39.7c0.4,8.1,2.7,16,6.8,23.1
		c2.7,3.6,5.4,7.1,8.2,10.5l-2.5-2.9c2.1,4.2,2.1,4.4,0.3,0.6c1.1,4.8,1.2,4.8,0.2,0.2v3.4c0.4-10.2,5.4-17.4,15.1-21.8
		c3.7-0.4,4-0.5,0.9-0.4c-3,0.2-2.7,0.1,1.5,0.4c6.8,0.7-1.9-1.7-4.5-3.1c-11.5-6.6-24.6-9.9-37.8-9.5c-16.1,0.3-31.6,6-44.1,16.2
		c-0.7,0.5-9,6.9-2.7,2.1c-4.3,2.2-4.8,2.6-1.5,1.3c3.8-0.2,3.6-0.3-0.7-0.2l20.4,5.5l-2.8-1.7l18.5,24.1L512,368l-4.1,31.1
		c-1.7,2.7-4.3,4.7-7.4,5.6c-5.4,2.5-6.5,3.1-3,2.1c2.1,0,8.3-1.1,2.9-0.7c7.6-0.5,15.3-0.2,22.9-0.7c16.2-0.9,34.8-1.6,49-10.7
		c10.1-6.5,23.4-18.1,28.7-29c12.2-24.7-0.5-60.3-30.2-64.5c-20.8-2.9-44.3,5-49.6,28.2c-4.3,19,5.8,46.4,28.1,49.6l3,0.4L534.6,369
		l2.3,1.9l-10.4-17.8l1,2.9l4.1-31.1c4-8.8,3-3.5-0.1-0.4l-3.5,3.1c-4,3.5-1,2,9.2-4.6c15.3-9.8-11.2,1.8-6,1.3
		c-3.8,0.4-7.7,0.4-11.5,0.6c-20,1-39.9,0.2-58.1,9.9c-25.8,13.7-40.3,52.9-16.2,75.1c20.9,19.2,49.4,15.3,72.5,2.5
		c4.7-2.8,9.2-5.9,13.4-9.5c9.3-7.6-1-2.5-2.7,1.2c4.3-1,5.2-1.2,2.5-0.5c-1.3,0.5-2.8,0.6-4.2,0.3c-2.8-0.4-3.2-0.2-1,0.7
		c1.4,0.8,2.9,1.4,4.4,2.1c21.1,10.2,43.1,13.2,65.2,3.9c23-9.7,35.6-31.4,35.7-56c-0.3-12.1-3.1-23.9-8.4-34.8
		c-1.2-2.8-2.5-5.5-4.1-8.2c-2.1-3.5-4.5-6.7-7.3-9.7c-3-3.2-2.6-2.9,1.1,0.9l5.5,20.4c-16,19.6-19.1,26.4-9.3,20.2
		c3.7-2.4,7.3-5.1,10.6-8c2.2-2,4.3-4.2,6.3-6.5c11.7-13.4,17.8-28.4,13.7-46.3c-7.6-32.9-50.4-39.8-77.7-31.6
		c-14.6,4.1-27.1,13.6-35,26.6c-1.9,3.5-3.5,7.2-5,10.9c-4,10.2-5.2,12.9-3.6,8.2c-2.3,3.6-2.7,4.4-1.2,2.5c1.5-1.9,0.9-1.3-2.1,1.9
		c3-2.2,2.5-2.1-1.4,0.4c-2,1-4,2.1-5.9,3.2c3-1.3,3.1-1.5,0-0.6c-3.1,1-2.9,0.8,1,0c-2.7,0-5.4,0-8,0h-16.9
		c-21.1,0-41.3,18.5-40.3,40.3C444.2,366.3,460.8,384.9,483.5,384.9L483.5,384.9z"/>
</g>
<rect x="133.8" y="74.3" class="st8" width="354.3" height="212.9"/>
<rect x="622.9" y="-46.7" class="st9" width="76.4" height="431.3"/>
<rect x="-57.3" y="-111.7" class="st9" width="704.1" height="104.9"/>
<rect x="-80.2" y="-39.1" class="st9" width="68" height="431.3"/>
<rect x="-46.4" y="356.3" class="st9" width="708.1" height="78.5"/>
<path class="st10" d="M143.4,164.2c2.4-3.3,5.8-13,10.7-10.9c1.7,0.7-2.1,15.6-2.5,17.8c-2.3,10.8-4.5,21.7-7.8,32.2l4.4,1.2
	c4-17.4,11.1-34,20.9-49l-4.2-0.6c3,8,0,19,0.3,27.4c0,2.1,3.2,3.3,4.2,1.2c1.5-3.2,13.3-26,16.6-24.3c0.4,0.2-0.3,18.4-0.2,20.4
	c0.2,5.4,1.1,10.8,2.5,16c3.7,11.5,13.2,17.9,21.5,6.9c1.8-2.3-2.2-4.6-3.9-2.3l-11.4-1.1c-1.4-2.7-2.4-5.5-2.9-8.5
	c-1-5.3-1.5-10.6-1.6-15.9c0.1-6.3-0.3-12.6-1.2-18.9c-0.3-1-1.2-1.7-2.2-1.7c-8.8-0.4-18.5,21.2-21.3,27.1l4.2,1.1
	c-0.3-8.9,2.7-20.2-0.4-28.6c-0.4-1.2-1.7-1.9-2.9-1.5c-0.5,0.2-0.9,0.5-1.2,1c-9.9,15.4-17.1,32.3-21.3,50.1
	c-0.2,1.2,0.6,2.4,1.8,2.6c1.1,0.2,2.1-0.4,2.5-1.4c3.3-11.3,6.1-22.8,8.3-34.5c1.6-7.7,3.4-15.9,1.4-23.6c-0.3-1.2-1.6-1.9-2.8-1.6
	c-7.6,2.5-11.3,11.1-15.5,17.2C137.8,164.4,141.7,166.5,143.4,164.2z"/>
<path class="st10" d="M206.4,175.7c-4.8-10.1-16.6,0.5-12.6,8.8c4.3,9,12.2-2.2,11.5-8.4c-0.2-1.9-3.2-3.5-4.2-1.1
	c-5.7,13.3,11.6,19.4,13.6,2.3c0.3-2.3-3.2-2.9-4.2-1.1l-0.8,1.4c-0.5,0.9-0.3,2,0.4,2.7l0.8,0.9c0.7,0.7,1.9,0.9,2.7,0.4
	c1.7-0.8,3.1-2.1,4.2-3.6l-3.9-1.6c0.3,10.1,11.5,12.8,19.1,5.9c5-4.5,3.2-11.1-4.2-9.7c-0.8,0.2-1.4,0.8-1.6,1.6l-0.4,1.4
	c-0.2,0.8,0,1.6,0.6,2.2c2,0.9,4.1,1.4,6.3,1.5c0,0,1.3,5.7,1.5,7c0.5,2.6,0.7,5.2,0.6,7.8c0.2-3,1.8-5.6,4.4-7.1
	c3.9-4.1,14.4-7.4,10.8-14.7c-0.4-0.7-1.2-1.1-2-1.1c-5,0.2-7.9,6.5-6.8,11.1c0.2,0.8,0.8,1.4,1.6,1.6c4.3,0.7,7-2.3,9.7-5.3
	l-3.9-1.6c-0.2,4.1,1.6,9.2,6.5,8.7c5.5-0.6,5.7-7.1,5.7-11.5l-4.2,1.1c1.2,2.3,4.1,3.3,6.5,2c0.4-0.2,0.8-0.5,1.1-0.8l-3.4-2
	c0.2,11.7,15.1,10.2,15.9-0.4c0-1.3-1.1-2.3-2.4-2.2c-0.6,0-1.1,0.2-1.5,0.6c-5.7,5.7,1.2,13.3,8.1,10.3c7.6-3.4,9-18.3,5.6-24.8
	c-0.7-1.1-2.1-1.4-3.1-0.8c-0.5,0.3-0.8,0.8-1,1.3c-3.7,11.4,4.4,27.3,16.5,29.1c2.9,0.4,4.1-4,1.2-4.4
	c-9.9-1.4-16.1-14.7-13.3-23.5l-4.2,0.6c0.8,2.1,1.1,4.4,0.7,6.7c0,1.3-0.2,2.6-0.5,3.9c0.1,3.6-2.1,5-6.8,4.8l-3.9-1.6l-6.8,0.4
	c0-1.3-1-2.3-2.3-2.2c-0.4,0-0.8,0.1-1.1,0.3l-1.4,0.4c-0.7-1.1-2.1-1.4-3.2-0.7c-0.6,0.4-1.1,1.1-1.1,1.9l-3.2,2.9
	c0-1.3-1.1-2.3-2.4-2.2c-0.6,0-1.1,0.2-1.5,0.6c-4,0.5-7.6,2.6-10.1,5.8c-1.3,0.9-2.5,1.9-3.7,2.8c-2.1,1.4-3.7,3.3-4.8,5.5
	c-1.5,4.3,0,6.6,3.4,9.5c0.9,0.9,2.3,0.9,3.2,0c4.4-5.7,1.3-17.1-1-23.2c-0.4-1.2-1.6-1.9-2.8-1.6c-5.2,1.8-10.8,2.5-16.3,2.1
	c0-1.8-2.5-3.3-3.9-1.6c-1.6,1.1-1.6,2.3-0.2,3.7l-4.2-1.2c-1,8.5-5.2,0.2-5,0l-4.2-1.1c-0.4,6.7-1.2,8.6-2.3,5.7
	c-1.3-2,0-3.3,4.1-3.8c1.3,2.5,5.2,0.3,3.9-2.3H206.4z"/>
<path class="st10" d="M269.8,169.6c12.2-1.3,24.5-1.5,36.7-0.6c2.9,0.2,2.9-4.4,0-4.5c-12.2-0.9-24.5-0.7-36.7,0.6
	C267,165.4,266.9,169.9,269.8,169.6z"/>
<path class="st10" d="M378,165.9c-1.7-1.5-4-1.9-6.1-1.1c-2.2,1.1-3.2,3.7-2.2,5.9c1.5,4.2,6.6,4,10.2,4c1.3,0,2.3-1,2.3-2.3
	s-1-2.3-2.3-2.3c-1.8,0.3-3.6,0.1-5.3-0.5c-0.4-0.2-0.7-0.6-0.7-1c0,0.6-0.5,0,0.1,0.2c0.2,0,0.6,0,0.8,0.2c0.9,0.8,2.3,0.8,3.2,0
	C378.8,168.2,378.8,166.8,378,165.9L378,165.9z"/>
<path class="st10" d="M403.9,163.4l0.3,0.2c1.7,1.3,3.7-0.8,3.3-2.5c-2.3-10.5-11-9.1-16.7-2.2c-7.8,9.4-10.3,23.5-7.8,35.3
	c1.6,7.6,7.1,16.7,14.6,8.9c6-6.2,9.3-25.4,4.3-32.8c-0.7-1.1-2.1-1.4-3.2-0.8c-0.1,0.1-0.3,0.2-0.4,0.3c-8.2,6.8-0.5,22.5,7.7,25.6
	c2.7,1,3.9-3.4,1.2-4.4c-4.3-1.6-11.1-13.6-5.7-18l-3.7-0.5c2.8,4.3,1.1,11.9,0.1,16.4c-0.3,1.2-0.6,5.8-1.7,6.6l-8.5,0.2
	c-0.5-1.8-0.9-3.7-1-5.6c-0.8-5.6-0.3-11.3,1.5-16.7c0.9-2.8,2-5.4,3.5-7.9c1-1.6,8.9-13.5,11.2-3l3.3-2.5l-0.3-0.2
	c-2.3-1.8-4.6,2.2-2.3,3.9L403.9,163.4z"/>
<path class="st10" d="M411.4,179.4c-2.2,3.8-3.7,7.4-1.1,11.3c0.4,0.7,1.1,1.1,1.9,1.1c4.3-0.6,5.6-1.7,7.4-5.9l-4.2-1.1l0.4,3.6
	c0,1,0.7,1.9,1.7,2.2c10.4,2.5,14.9-15.7,14.1-23.4c0-1.3-1.1-2.3-2.4-2.2c-0.8,0-1.5,0.4-1.9,1.1c-4.4,5.8-6.7,20.9,1.3,25.2
	c8,4.3,11.6-6,10.1-11.8c-0.4-1.2-1.7-1.9-2.9-1.6c-0.2,0-0.3,0.1-0.5,0.2c-8.3,6.1,6,19,10.9,4.4c0.9-2.8-3.4-3.9-4.4-1.2
	c-3,8.4,7.6,8,11.2,2.5l-4.2-0.6c2.1,8.9,2.1,11.4,9.1,5c3-2.5,5.7-5.3,8.3-8.2c3.2-3.9,7.6-9.8,6-15.1c-0.4-1.2-1.6-1.9-2.9-1.5
	c-0.5,0.2-1,0.5-1.3,1c-5.2,8.4-0.2,15.3,7.4,19.7c1.1,0.6,2.5,0.3,3.1-0.8c0.6-1.1,0.3-2.5-0.8-3.1c-5.9-2.1-7.8-6.6-5.7-13.5
	l-4.2-0.5c3,9.7-16.4,19.6-20.9,25.8c-2.7,3.8-3.4,7.6-0.3,11.3c0.7,0.7,1.9,0.9,2.7,0.4c6.6-3.9,5-15.8,3.8-21.8
	c-0.4-1.2-1.7-1.9-2.9-1.5c-0.5,0.2-0.9,0.5-1.2,1l-2.8,1l-4.4-1.2l-4.2,0.7l-3.3-1.4c-5.6,3.5-7.6,2.5-5.7-3
	c-0.4-3.3,0.5-6.6,2.5-9.3l-4.2-1.1c0.1,2.8-0.3,5.6-1.2,8.2c-0.4,1.7-1,3.4-1.8,5c0,2.3-1.8,4.3-4.1,4.5c-0.2-2-3.2-3.4-4.2-1.2
	l-0.5-1.9c0.6-1.1,0.1-2.5-1-3.1c-1-0.5-2.3-0.2-2.9,0.8L411.4,179.4z"/>
<path class="st10" d="M314.6,162.6c2.5-3.5,5.7-13,10.7-11c1.7,0.7-2.1,15.6-2.5,17.8c-2.3,10.7-4.5,21.7-7.8,32.2l4.4,1.2
	c4-17.4,11.1-34.1,20.9-49.1l-4.2-0.5c3,8,0,19,0.3,27.4c0,2.1,3.2,3.3,4.2,1.1c1.5-3.2,13.3-26,16.6-24.3
	c0.4,0.2-0.3,18.4-0.2,20.4c0.2,5.4,1,10.8,2.5,16c3.7,11.5,13.2,18,21.5,6.9c1.8-2.3-2.2-4.6-3.9-2.3l-11.3-1
	c-1.4-2.6-2.4-5.5-2.9-8.5c-1-5.3-1.5-10.6-1.6-15.9c0.1-6.3-0.3-12.6-1.2-18.9c-0.3-1-1.2-1.7-2.2-1.7
	c-8.8-0.4-18.5,21.2-21.3,27.1l4.2,1.1c-0.3-8.9,2.7-20.2-0.4-28.6c-0.4-1.2-1.7-1.9-2.9-1.5c-0.5,0.2-1,0.5-1.2,1
	c-9.9,15.4-17.1,32.3-21.3,50.1c-0.2,1.2,0.5,2.4,1.8,2.7c1.1,0.2,2.2-0.4,2.6-1.5c3.3-11.4,6.1-22.9,8.3-34.5
	c1.6-7.6,3.4-15.9,1.4-23.6c-0.3-1.2-1.6-1.9-2.8-1.6c-7.4,2.5-11.3,11.1-15.5,17.2C309,162.9,312.9,165.1,314.6,162.6L314.6,162.6z
	"/>
</svg>
